<?xml version="1.0" encoding="UTF-8"?>
<!DOCTYPE svg PUBLIC "-//W3C//DTD SVG 1.1//EN" "http://www.w3.org/Graphics/SVG/1.1/DTD/svg11.dtd">
<svg xmlns="http://www.w3.org/2000/svg" version="1.1" width="1080px" height="2316px" style="shape-rendering:geometricPrecision; text-rendering:geometricPrecision; image-rendering:optimizeQuality; fill-rule:evenodd; clip-rule:evenodd" xmlns:xlink="http://www.w3.org/1999/xlink">
<g><path style="opacity:1" fill="#cccccc" d="M 508.5,948.5 C 526.167,948.5 543.833,948.5 561.5,948.5C 571.833,948.5 582.167,948.5 592.5,948.5C 592.662,946.473 592.495,944.473 592,942.5C 590.2,944.317 588.034,945.484 585.5,946C 577.507,946.5 569.507,946.666 561.5,946.5C 553.263,945.716 544.929,944.549 536.5,943C 533.285,942.726 530.619,941.393 528.5,939C 534.082,928.573 541.749,926.739 551.5,933.5C 553.509,930.804 555.509,928.137 557.5,925.5C 566.064,918.928 575.73,916.761 586.5,919C 588.848,919.346 590.681,920.513 592,922.5C 592.5,905.503 592.667,888.503 592.5,871.5C 594.591,871.318 596.591,871.652 598.5,872.5C 599.5,897.825 599.833,923.158 599.5,948.5C 609.416,948.819 619.25,948.486 629,947.5C 630.642,926.172 632.142,904.839 633.5,883.5C 658.295,892.312 681.128,904.646 702,920.5C 702.5,986.832 702.667,1053.17 702.5,1119.5C 700.642,1125.75 698.975,1132.08 697.5,1138.5C 697.833,1139.5 698.167,1140.5 698.5,1141.5C 700.026,1141.99 701.359,1142.66 702.5,1143.5C 702.5,1177.5 702.5,1211.5 702.5,1245.5C 701.209,1245.26 700.209,1245.6 699.5,1246.5C 694.294,1249.2 689.794,1252.86 686,1257.5C 683.584,1262.28 681.084,1266.95 678.5,1271.5C 678.667,1210.5 678.5,1149.5 678,1088.5C 676.749,1085.62 674.583,1083.79 671.5,1083C 654.17,1082.5 636.837,1082.33 619.5,1082.5C 620.245,1068.14 621.245,1053.81 622.5,1039.5C 564.5,1039.5 506.5,1039.5 448.5,1039.5C 449.263,1053.85 450.263,1068.19 451.5,1082.5C 430.831,1082.33 410.164,1082.5 389.5,1083C 387,1084.17 385.167,1086 384,1088.5C 383.5,1142.17 383.333,1195.83 383.5,1249.5C 378.521,1248.43 373.854,1246.76 369.5,1244.5C 369.5,1210.5 369.5,1176.5 369.5,1142.5C 377.183,1139.47 381.517,1133.81 382.5,1125.5C 381.989,1119.14 378.823,1117.14 373,1119.5C 372.667,1117.5 372.333,1115.5 372,1113.5C 370.519,1112.53 369.685,1111.2 369.5,1109.5C 369.167,1043.83 369.5,978.163 370.5,912.5C 390.911,898.628 412.911,887.962 436.5,880.5C 438.45,903.139 440.117,925.806 441.5,948.5C 451.833,948.5 462.167,948.5 472.5,948.5C 472.333,922.498 472.5,896.498 473,870.5C 474.699,869.594 476.533,869.261 478.5,869.5C 478.5,895.833 478.5,922.167 478.5,948.5C 488.5,948.5 498.5,948.5 508.5,948.5 Z M 561.5,948.5 C 561.5,947.833 561.5,947.167 561.5,946.5C 569.507,946.666 577.507,946.5 585.5,946C 588.034,945.484 590.2,944.317 592,942.5C 592.495,944.473 592.662,946.473 592.5,948.5C 582.167,948.5 571.833,948.5 561.5,948.5 Z M 442.5,955.5 C 452.5,955.5 462.5,955.5 472.5,955.5C 472.5,976.5 472.5,997.5 472.5,1018.5C 463.833,1018.5 455.167,1018.5 446.5,1018.5C 445.119,997.503 443.786,976.503 442.5,955.5 Z M 478.5,955.5 C 489.172,955.333 499.839,955.5 510.5,956C 504.437,958.729 499.603,962.896 496,968.5C 490.791,964.057 485.124,963.391 479,966.5C 478.501,962.848 478.335,959.182 478.5,955.5 Z M 557.5,955.5 C 569.167,955.5 580.833,955.5 592.5,955.5C 592.5,976.5 592.5,997.5 592.5,1018.5C 577.5,1018.5 562.5,1018.5 547.5,1018.5C 544.48,1014.32 540.313,1012.32 535,1012.5C 532.102,1012.64 529.269,1013.14 526.5,1014C 524.697,1014.64 523.364,1015.8 522.5,1017.5C 507.848,1018.5 493.182,1018.83 478.5,1018.5C 478.5,1005.17 478.5,991.833 478.5,978.5C 494.372,981.375 510.372,982.541 526.5,982C 535.402,981.265 540.068,976.432 540.5,967.5C 547.863,965.789 553.53,961.789 557.5,955.5 Z M 628.5,957.5 C 626.741,977.131 625.407,996.798 624.5,1016.5C 616.436,1018.42 608.103,1019.09 599.5,1018.5C 599.5,997.5 599.5,976.5 599.5,955.5C 609.558,954.86 619.225,955.527 628.5,957.5 Z M 619.5,1082.5 C 563.5,1082.5 507.5,1082.5 451.5,1082.5C 450.263,1068.19 449.263,1053.85 448.5,1039.5C 506.5,1039.5 564.5,1039.5 622.5,1039.5C 621.245,1053.81 620.245,1068.14 619.5,1082.5 Z"/></g>
<g><path style="opacity:0.982" fill="#fc6584" d="M 557.5,925.5 C 555.509,928.137 553.509,930.804 551.5,933.5C 541.749,926.739 534.082,928.573 528.5,939C 530.619,941.393 533.285,942.726 536.5,943C 544.929,944.549 553.263,945.716 561.5,946.5C 561.5,947.167 561.5,947.833 561.5,948.5C 543.833,948.5 526.167,948.5 508.5,948.5C 505.782,928.055 514.615,916.388 535,913.5C 544.579,913.705 552.079,917.705 557.5,925.5 Z"/></g>
<g><path style="opacity:0.502" fill="#e6e6e6" d="M 557.5,955.5 C 569.322,954.505 581.322,954.172 593.5,954.5C 593.5,976.167 593.5,997.833 593.5,1019.5C 577.991,1019.83 562.658,1019.5 547.5,1018.5C 562.5,1018.5 577.5,1018.5 592.5,1018.5C 592.5,997.5 592.5,976.5 592.5,955.5C 580.833,955.5 569.167,955.5 557.5,955.5 Z"/></g>
<g><path style="opacity:0.98" fill="#fc6685" d="M 557.5,955.5 C 553.53,961.789 547.863,965.789 540.5,967.5C 539.862,962.739 537.529,958.906 533.5,956C 541.493,955.5 549.493,955.334 557.5,955.5 Z"/></g>
<g><path style="opacity:0.663" fill="#e6e6e6" d="M 628.5,957.5 C 619.225,955.527 609.558,954.86 599.5,955.5C 599.5,976.5 599.5,997.5 599.5,1018.5C 608.103,1019.09 616.436,1018.42 624.5,1016.5C 624.5,1017.5 624.5,1018.5 624.5,1019.5C 615.833,1019.5 607.167,1019.5 598.5,1019.5C 598.5,997.833 598.5,976.167 598.5,954.5C 608.833,954.5 619.167,954.5 629.5,954.5C 629.737,955.791 629.404,956.791 628.5,957.5 Z"/></g>
<g><path style="opacity:1" fill="#413e59" d="M 451.5,1082.5 C 507.5,1082.5 563.5,1082.5 619.5,1082.5C 636.837,1082.33 654.17,1082.5 671.5,1083C 674.583,1083.79 676.749,1085.62 678,1088.5C 678.5,1149.5 678.667,1210.5 678.5,1271.5C 677.439,1274.62 676.105,1277.62 674.5,1280.5C 673.227,1282.71 672.227,1285.05 671.5,1287.5C 654.5,1287.5 637.5,1287.5 620.5,1287.5C 620.029,1285.42 619.363,1283.42 618.5,1281.5C 635.503,1281.67 652.503,1281.5 669.5,1281C 670.333,1280.17 671.167,1279.33 672,1278.5C 672.667,1216.5 672.667,1154.5 672,1092.5C 671.167,1091.67 670.333,1090.83 669.5,1090C 576.833,1089.33 484.167,1089.33 391.5,1090C 390.944,1090.38 390.611,1090.88 390.5,1091.5C 389.833,1144.5 389.167,1197.5 388.5,1250.5C 386.883,1249.96 385.216,1249.63 383.5,1249.5C 383.333,1195.83 383.5,1142.17 384,1088.5C 385.167,1086 387,1084.17 389.5,1083C 410.164,1082.5 430.831,1082.33 451.5,1082.5 Z"/></g>
<g><path style="opacity:0.994" fill="#2f2e41" d="M 369.5,1109.5 C 369.685,1111.2 370.519,1112.53 372,1113.5C 372.333,1115.5 372.667,1117.5 373,1119.5C 378.823,1117.14 381.989,1119.14 382.5,1125.5C 381.517,1133.81 377.183,1139.47 369.5,1142.5C 367.435,1142.52 365.435,1142.85 363.5,1143.5C 360.932,1142.36 358.265,1142.52 355.5,1144C 351.928,1147.82 348.595,1151.82 345.5,1156C 339.915,1157.19 334.249,1157.85 328.5,1158C 320.388,1161.11 315.555,1166.95 314,1175.5C 311.964,1167.48 307.297,1165.15 300,1168.5C 298.48,1172.37 298.146,1176.37 299,1180.5C 302.766,1192.03 307.599,1203.03 313.5,1213.5C 288.885,1219.79 270.052,1211.79 257,1189.5C 247.606,1171.53 244.273,1152.53 247,1132.5C 247.879,1127.86 249.545,1123.53 252,1119.5C 261.512,1110.65 270.345,1101.15 278.5,1091C 298.983,1080.91 318.316,1082.91 336.5,1097C 339.372,1099.54 341.872,1102.37 344,1105.5C 347.702,1102.97 351.535,1100.63 355.5,1098.5C 358.103,1102.05 359.936,1106.05 361,1110.5C 363.719,1109.56 366.552,1109.22 369.5,1109.5 Z"/></g>
<g><path style="opacity:0.994" fill="#2f2e41" d="M 817.5,1253.5 C 815.194,1253.01 812.861,1252.67 810.5,1252.5C 805.956,1251.51 801.289,1250.51 796.5,1249.5C 794.565,1248.85 792.565,1248.52 790.5,1248.5C 781.104,1245.96 771.437,1244.29 761.5,1243.5C 757.881,1242.76 754.215,1242.42 750.5,1242.5C 748.039,1241.47 745.373,1240.8 742.5,1240.5C 736.167,1240.5 729.833,1240.5 723.5,1240.5C 723.5,1240.17 723.5,1239.83 723.5,1239.5C 722.833,1239.5 722.5,1239.83 722.5,1240.5C 721.833,1240.5 721.5,1240.83 721.5,1241.5C 718.219,1241.42 715.219,1242.09 712.5,1243.5C 709.518,1243.96 706.518,1244.3 703.5,1244.5C 712.933,1233.31 720.599,1220.98 726.5,1207.5C 734.664,1192.49 737.498,1176.49 735,1159.5C 734.027,1156.22 732.527,1153.22 730.5,1150.5C 726.73,1149.45 723.064,1148.12 719.5,1146.5C 721.289,1143.35 722.122,1140.01 722,1136.5C 720.291,1139.42 718.458,1142.25 716.5,1145C 714.071,1145.7 711.738,1145.54 709.5,1144.5C 707.139,1144.33 704.806,1143.99 702.5,1143.5C 701.359,1142.66 700.026,1141.99 698.5,1141.5C 698.167,1140.5 697.833,1139.5 697.5,1138.5C 698.975,1132.08 700.642,1125.75 702.5,1119.5C 716.777,1097.47 735.943,1092.13 760,1103.5C 761.194,1102.57 762.527,1101.9 764,1101.5C 765.667,1102.83 767.333,1104.17 769,1105.5C 772.712,1104.23 776.378,1104.23 780,1105.5C 786.618,1089.18 798.118,1084.35 814.5,1091C 823.568,1099.63 828.402,1110.13 829,1122.5C 826.385,1129.74 821.218,1134.08 813.5,1135.5C 824.029,1147.94 827.862,1162.28 825,1178.5C 824.094,1183.55 822.594,1188.38 820.5,1193C 828.864,1202.93 832.531,1214.43 831.5,1227.5C 832.344,1235.65 830.844,1243.31 827,1250.5C 823.949,1252.02 820.782,1253.02 817.5,1253.5 Z M 734.5,1222.5 C 732.902,1227.7 730.735,1232.7 728,1237.5C 726.67,1238.58 725.17,1239.25 723.5,1239.5C 726.78,1233.56 730.447,1227.89 734.5,1222.5 Z"/></g>
<g><path style="opacity:1" fill="#5842bb" d="M 618.5,1281.5 C 616.014,1274.52 613.514,1267.52 611,1260.5C 609.808,1250.2 607.475,1240.2 604,1230.5C 598.47,1222.76 590.97,1219.93 581.5,1222C 567.129,1229.94 564.629,1240.77 574,1254.5C 579,1260.5 584,1266.5 589,1272.5C 590.845,1274.87 592.011,1277.53 592.5,1280.5C 534.002,1281.5 475.336,1281.83 416.5,1281.5C 415.079,1278.99 413.412,1276.66 411.5,1274.5C 407.664,1266.99 402.331,1260.66 395.5,1255.5C 393.833,1254.17 392.167,1252.83 390.5,1251.5C 390.5,1198.17 390.5,1144.83 390.5,1091.5C 390.611,1090.88 390.944,1090.38 391.5,1090C 484.167,1089.33 576.833,1089.33 669.5,1090C 670.333,1090.83 671.167,1091.67 672,1092.5C 672.667,1154.5 672.667,1216.5 672,1278.5C 671.167,1279.33 670.333,1280.17 669.5,1281C 652.503,1281.5 635.503,1281.67 618.5,1281.5 Z"/></g>
<g><path style="opacity:1" fill="#5441ab" d="M 390.5,1091.5 C 390.5,1144.83 390.5,1198.17 390.5,1251.5C 389.508,1251.67 388.842,1251.34 388.5,1250.5C 389.167,1197.5 389.833,1144.5 390.5,1091.5 Z"/></g>
<g><path style="opacity:1" fill="#403d59" d="M 601.5,1095.5 C 610.487,1094.67 612.82,1098.17 608.5,1106C 601.186,1108.02 598.352,1105.19 600,1097.5C 600.717,1096.96 601.217,1096.29 601.5,1095.5 Z"/></g>
<g><path style="opacity:1" fill="#3f3d58" d="M 622.5,1095.5 C 628.83,1094.67 631.663,1097.33 631,1103.5C 627.333,1107.5 623.667,1107.5 620,1103.5C 619.018,1100.23 619.851,1097.56 622.5,1095.5 Z"/></g>
<g><path style="opacity:1" fill="#403d59" d="M 642.5,1095.5 C 651.487,1094.67 653.82,1098.17 649.5,1106C 642.186,1108.02 639.352,1105.19 641,1097.5C 641.717,1096.96 642.217,1096.29 642.5,1095.5 Z"/></g>
<g><path style="opacity:1" fill="#403d59" d="M 419.5,1096.5 C 425.206,1096.17 430.872,1096.5 436.5,1097.5C 433.667,1097.83 430.833,1098.17 428,1098.5C 424.748,1098.48 421.915,1097.81 419.5,1096.5 Z"/></g>
<g><path style="opacity:1" fill="#403d5c" d="M 419.5,1100.5 C 425.206,1100.17 430.872,1100.5 436.5,1101.5C 433.667,1101.83 430.833,1102.17 428,1102.5C 424.748,1102.48 421.915,1101.81 419.5,1100.5 Z"/></g>
<g><path style="opacity:1" fill="#413d60" d="M 419.5,1104.5 C 425.352,1104.05 431.019,1104.55 436.5,1106C 433.667,1106.17 430.833,1106.33 428,1106.5C 424.748,1106.48 421.915,1105.81 419.5,1104.5 Z"/></g>
<g><path style="opacity:1" fill="#423d64" d="M 407.5,1112.5 C 493.169,1112.17 578.836,1112.5 664.5,1113.5C 621.667,1113.83 578.833,1114.17 536,1114.5C 492.828,1114.5 449.995,1113.83 407.5,1112.5 Z"/></g>
<g><path style="opacity:1" fill="#dedde3" d="M 433.5,1137.5 C 445.505,1137.33 457.505,1137.5 469.5,1138C 470.86,1139.94 470.527,1141.6 468.5,1143C 456.833,1143.67 445.167,1143.67 433.5,1143C 432.248,1141.17 432.248,1139.34 433.5,1137.5 Z"/></g>
<g><path style="opacity:1" fill="#dedde3" d="M 513.5,1137.5 C 525.505,1137.33 537.505,1137.5 549.5,1138C 550.86,1139.94 550.527,1141.6 548.5,1143C 536.833,1143.67 525.167,1143.67 513.5,1143C 512.248,1141.17 512.248,1139.34 513.5,1137.5 Z"/></g>
<g><path style="opacity:1" fill="#d8d5e2" d="M 417.5,1137.5 C 420.187,1137.34 422.854,1137.5 425.5,1138C 426.554,1139.39 426.72,1140.89 426,1142.5C 422.927,1143.62 419.76,1143.78 416.5,1143C 415.243,1140.92 415.576,1139.09 417.5,1137.5 Z"/></g>
<g><path style="opacity:1" fill="#d8d6e2" d="M 477.5,1137.5 C 480.187,1137.34 482.854,1137.5 485.5,1138C 486.554,1139.39 486.72,1140.89 486,1142.5C 482.927,1143.62 479.76,1143.78 476.5,1143C 475.243,1140.92 475.576,1139.09 477.5,1137.5 Z"/></g>
<g><path style="opacity:1" fill="#d8d6e2" d="M 494.5,1137.5 C 497.187,1137.34 499.854,1137.5 502.5,1138C 503.554,1139.39 503.72,1140.89 503,1142.5C 499.927,1143.62 496.76,1143.78 493.5,1143C 492.243,1140.92 492.576,1139.09 494.5,1137.5 Z"/></g>
<g><path style="opacity:0.991" fill="#fcb4b4" d="M 726.5,1207.5 C 705.683,1190.56 700.016,1169.56 709.5,1144.5C 711.738,1145.54 714.071,1145.7 716.5,1145C 718.458,1142.25 720.291,1139.42 722,1136.5C 722.122,1140.01 721.289,1143.35 719.5,1146.5C 723.064,1148.12 726.73,1149.45 730.5,1150.5C 732.527,1153.22 734.027,1156.22 735,1159.5C 737.498,1176.49 734.664,1192.49 726.5,1207.5 Z"/></g>
<g><path style="opacity:0.997" fill="#9f6069" d="M 363.5,1143.5 C 369.166,1176.34 356.499,1198.84 325.5,1211C 321.504,1211.94 317.504,1212.78 313.5,1213.5C 307.599,1203.03 302.766,1192.03 299,1180.5C 298.146,1176.37 298.48,1172.37 300,1168.5C 307.297,1165.15 311.964,1167.48 314,1175.5C 315.555,1166.95 320.388,1161.11 328.5,1158C 334.249,1157.85 339.915,1157.19 345.5,1156C 348.595,1151.82 351.928,1147.82 355.5,1144C 358.265,1142.52 360.932,1142.36 363.5,1143.5 Z"/></g>
<g><path style="opacity:1" fill="#dedde3" d="M 449.5,1150.5 C 461.505,1150.33 473.505,1150.5 485.5,1151C 486.86,1152.94 486.527,1154.6 484.5,1156C 472.833,1156.67 461.167,1156.67 449.5,1156C 448.248,1154.17 448.248,1152.34 449.5,1150.5 Z"/></g>
<g><path style="opacity:1" fill="#dedde3" d="M 529.5,1150.5 C 541.505,1150.33 553.505,1150.5 565.5,1151C 566.86,1152.94 566.527,1154.6 564.5,1156C 552.833,1156.67 541.167,1156.67 529.5,1156C 528.248,1154.17 528.248,1152.34 529.5,1150.5 Z"/></g>
<g><path style="opacity:1" fill="#d8d5e2" d="M 433.5,1150.5 C 436.187,1150.34 438.854,1150.5 441.5,1151C 442.554,1152.39 442.72,1153.89 442,1155.5C 438.927,1156.62 435.76,1156.78 432.5,1156C 431.243,1153.92 431.576,1152.09 433.5,1150.5 Z"/></g>
<g><path style="opacity:1" fill="#d8d6e2" d="M 493.5,1150.5 C 496.187,1150.34 498.854,1150.5 501.5,1151C 502.554,1152.39 502.72,1153.89 502,1155.5C 498.927,1156.62 495.76,1156.78 492.5,1156C 491.243,1153.92 491.576,1152.09 493.5,1150.5 Z"/></g>
<g><path style="opacity:1" fill="#d8d6e2" d="M 510.5,1150.5 C 513.187,1150.34 515.854,1150.5 518.5,1151C 519.554,1152.39 519.72,1153.89 519,1155.5C 515.927,1156.62 512.76,1156.78 509.5,1156C 508.243,1153.92 508.576,1152.09 510.5,1150.5 Z"/></g>
<g><path style="opacity:1" fill="#dedde3" d="M 465.5,1163.5 C 477.505,1163.33 489.505,1163.5 501.5,1164C 502.86,1165.94 502.527,1167.6 500.5,1169C 488.833,1169.67 477.167,1169.67 465.5,1169C 464.248,1167.17 464.248,1165.34 465.5,1163.5 Z"/></g>
<g><path style="opacity:1" fill="#dedde3" d="M 545.5,1163.5 C 557.505,1163.33 569.505,1163.5 581.5,1164C 582.86,1165.94 582.527,1167.6 580.5,1169C 568.833,1169.67 557.167,1169.67 545.5,1169C 544.248,1167.17 544.248,1165.34 545.5,1163.5 Z"/></g>
<g><path style="opacity:1" fill="#d8d6e2" d="M 449.5,1163.5 C 452.187,1163.34 454.854,1163.5 457.5,1164C 458.554,1165.39 458.72,1166.89 458,1168.5C 454.927,1169.62 451.76,1169.78 448.5,1169C 447.243,1166.92 447.576,1165.09 449.5,1163.5 Z"/></g>
<g><path style="opacity:1" fill="#d8d6e2" d="M 509.5,1163.5 C 512.187,1163.34 514.854,1163.5 517.5,1164C 518.554,1165.39 518.72,1166.89 518,1168.5C 514.927,1169.62 511.76,1169.78 508.5,1169C 507.243,1166.92 507.576,1165.09 509.5,1163.5 Z"/></g>
<g><path style="opacity:1" fill="#d8d6e2" d="M 526.5,1163.5 C 529.187,1163.34 531.854,1163.5 534.5,1164C 535.554,1165.39 535.72,1166.89 535,1168.5C 531.927,1169.62 528.76,1169.78 525.5,1169C 524.243,1166.92 524.576,1165.09 526.5,1163.5 Z"/></g>
<g><path style="opacity:1" fill="#dedde3" d="M 481.5,1176.5 C 493.505,1176.33 505.505,1176.5 517.5,1177C 518.86,1178.94 518.527,1180.6 516.5,1182C 504.833,1182.67 493.167,1182.67 481.5,1182C 480.248,1180.17 480.248,1178.34 481.5,1176.5 Z"/></g>
<g><path style="opacity:1" fill="#d8d6e2" d="M 465.5,1176.5 C 468.187,1176.34 470.854,1176.5 473.5,1177C 474.554,1178.39 474.72,1179.89 474,1181.5C 470.927,1182.62 467.76,1182.78 464.5,1182C 463.243,1179.92 463.576,1178.09 465.5,1176.5 Z"/></g>
<g><path style="opacity:1" fill="#d9d6e2" d="M 525.5,1176.5 C 528.187,1176.34 530.854,1176.5 533.5,1177C 534.554,1178.39 534.72,1179.89 534,1181.5C 530.927,1182.62 527.76,1182.78 524.5,1182C 523.243,1179.92 523.576,1178.09 525.5,1176.5 Z"/></g>
<g><path style="opacity:1" fill="#d8d6e2" d="M 542.5,1176.5 C 545.187,1176.34 547.854,1176.5 550.5,1177C 551.554,1178.39 551.72,1179.89 551,1181.5C 547.927,1182.62 544.76,1182.78 541.5,1182C 540.243,1179.92 540.576,1178.09 542.5,1176.5 Z"/></g>
<g><path style="opacity:1" fill="#dddce3" d="M 465.5,1189.5 C 468.187,1189.34 470.854,1189.5 473.5,1190C 474.554,1191.39 474.72,1192.89 474,1194.5C 471.263,1195.61 468.429,1195.78 465.5,1195C 462.982,1193.19 462.982,1191.36 465.5,1189.5 Z"/></g>
<g><path style="opacity:1" fill="#e5e4e5" d="M 480.5,1190.5 C 492.838,1190.33 505.171,1190.5 517.5,1191C 518.833,1192.33 518.833,1193.67 517.5,1195C 505.5,1195.67 493.5,1195.67 481.5,1195C 480.62,1193.64 480.286,1192.14 480.5,1190.5 Z"/></g>
<g><path style="opacity:1" fill="#dddce3" d="M 525.5,1189.5 C 528.187,1189.34 530.854,1189.5 533.5,1190C 534.554,1191.39 534.72,1192.89 534,1194.5C 531.263,1195.61 528.429,1195.78 525.5,1195C 522.982,1193.19 522.982,1191.36 525.5,1189.5 Z"/></g>
<g><path style="opacity:1" fill="#dddce3" d="M 542.5,1189.5 C 545.187,1189.34 547.854,1189.5 550.5,1190C 551.554,1191.39 551.72,1192.89 551,1194.5C 548.263,1195.61 545.429,1195.78 542.5,1195C 539.982,1193.19 539.982,1191.36 542.5,1189.5 Z"/></g>
<g><path style="opacity:1" fill="#cdcdcd" d="M 256.5,1253.5 C 242.243,1260.59 231.409,1271.26 224,1285.5C 218.871,1295.1 214.038,1304.76 209.5,1314.5C 200.348,1313.95 191.348,1314.79 182.5,1317C 178.019,1319.06 176.352,1322.56 177.5,1327.5C 178.098,1332.81 178.431,1338.15 178.5,1343.5C 169.983,1343.83 161.65,1343.49 153.5,1342.5C 155,1328.84 156.667,1315.17 158.5,1301.5C 165.745,1302.95 170.078,1299.95 171.5,1292.5C 171.352,1289.37 170.018,1286.87 167.5,1285C 163.704,1284.04 160.038,1282.88 156.5,1281.5C 145.682,1281.15 134.682,1281.15 123.5,1281.5C 135.944,1244.24 158.111,1214.24 190,1191.5C 185.969,1211.06 187.135,1230.39 193.5,1249.5C 185.592,1252.28 178.926,1256.78 173.5,1263C 174.167,1263.67 174.833,1264.33 175.5,1265C 183.724,1266.71 191.89,1268.54 200,1270.5C 215.429,1255.74 227.763,1238.74 237,1219.5C 240.023,1212.1 242.023,1204.43 243,1196.5C 251.611,1208.39 258.111,1221.39 262.5,1235.5C 262.167,1236.17 261.833,1236.83 261.5,1237.5C 255.208,1240.13 249.875,1243.97 245.5,1249C 249.256,1250.35 252.923,1251.85 256.5,1253.5 Z"/></g>
<g><path style="opacity:1" fill="#cdcdcd" d="M 924.5,1342.5 C 916.167,1342.5 907.833,1342.5 899.5,1342.5C 899.503,1337.47 899.836,1332.47 900.5,1327.5C 901.186,1323.71 900.186,1320.55 897.5,1318C 888.391,1315.09 879.058,1313.93 869.5,1314.5C 862.404,1301.3 855.071,1288.3 847.5,1275.5C 844.542,1270.87 840.876,1266.87 836.5,1263.5C 833.761,1261.15 831.095,1258.82 828.5,1256.5C 844.211,1239.41 854.377,1219.41 859,1196.5C 867.219,1208.77 873.719,1221.94 878.5,1236C 873.896,1238.98 869.229,1241.98 864.5,1245C 861.79,1246.46 861.124,1248.46 862.5,1251C 869.783,1252.59 876.95,1254.42 884,1256.5C 886.302,1267.38 887.468,1278.38 887.5,1289.5C 909.403,1281.32 932.07,1276.99 955.5,1276.5C 963.632,1276.47 971.632,1277.3 979.5,1279C 962.839,1290.96 950.172,1306.3 941.5,1325C 932.359,1327.4 924.692,1332.06 918.5,1339C 920.257,1340.75 922.257,1341.92 924.5,1342.5 Z"/></g>
<g><path style="opacity:1" fill="#dddce3" d="M 449.5,1202.5 C 452.187,1202.34 454.854,1202.5 457.5,1203C 458.554,1204.39 458.72,1205.89 458,1207.5C 455.263,1208.61 452.429,1208.78 449.5,1208C 446.982,1206.19 446.982,1204.36 449.5,1202.5 Z"/></g>
<g><path style="opacity:1" fill="#e5e4e5" d="M 464.5,1203.5 C 476.838,1203.33 489.171,1203.5 501.5,1204C 502.833,1205.33 502.833,1206.67 501.5,1208C 489.5,1208.67 477.5,1208.67 465.5,1208C 464.62,1206.64 464.286,1205.14 464.5,1203.5 Z"/></g>
<g><path style="opacity:1" fill="#dddce3" d="M 509.5,1202.5 C 512.187,1202.34 514.854,1202.5 517.5,1203C 518.554,1204.39 518.72,1205.89 518,1207.5C 515.263,1208.61 512.429,1208.78 509.5,1208C 506.982,1206.19 506.982,1204.36 509.5,1202.5 Z"/></g>
<g><path style="opacity:1" fill="#dddce3" d="M 526.5,1202.5 C 529.187,1202.34 531.854,1202.5 534.5,1203C 535.554,1204.39 535.72,1205.89 535,1207.5C 532.263,1208.61 529.429,1208.78 526.5,1208C 523.982,1206.19 523.982,1204.36 526.5,1202.5 Z"/></g>
<g><path style="opacity:1" fill="#dcdbe3" d="M 433.5,1215.5 C 436.187,1215.34 438.854,1215.5 441.5,1216C 442.554,1217.39 442.72,1218.89 442,1220.5C 439.263,1221.61 436.429,1221.78 433.5,1221C 430.982,1219.19 430.982,1217.36 433.5,1215.5 Z"/></g>
<g><path style="opacity:1" fill="#e5e4e5" d="M 448.5,1216.5 C 460.838,1216.33 473.171,1216.5 485.5,1217C 486.833,1218.33 486.833,1219.67 485.5,1221C 473.5,1221.67 461.5,1221.67 449.5,1221C 448.62,1219.64 448.286,1218.14 448.5,1216.5 Z"/></g>
<g><path style="opacity:1" fill="#dcdbe3" d="M 493.5,1215.5 C 496.187,1215.34 498.854,1215.5 501.5,1216C 502.554,1217.39 502.72,1218.89 502,1220.5C 499.263,1221.61 496.429,1221.78 493.5,1221C 490.982,1219.19 490.982,1217.36 493.5,1215.5 Z"/></g>
<g><path style="opacity:1" fill="#dcdbe3" d="M 510.5,1215.5 C 513.187,1215.34 515.854,1215.5 518.5,1216C 519.554,1217.39 519.72,1218.89 519,1220.5C 516.263,1221.61 513.429,1221.78 510.5,1221C 507.982,1219.19 507.982,1217.36 510.5,1215.5 Z"/></g>
<g><path style="opacity:0.998" fill="#fdb4b5" d="M 618.5,1281.5 C 619.363,1283.42 620.029,1285.42 620.5,1287.5C 620.196,1288.15 619.863,1288.82 619.5,1289.5C 620.765,1292.8 621.932,1296.13 623,1299.5C 623.697,1301.58 624.864,1303.25 626.5,1304.5C 619.692,1308.41 612.692,1312.07 605.5,1315.5C 605.035,1309.77 603.369,1304.44 600.5,1299.5C 599.817,1299.86 599.15,1300.2 598.5,1300.5C 597.5,1296.5 596.5,1292.5 595.5,1288.5C 595.672,1287.51 595.338,1286.84 594.5,1286.5C 594.405,1284.21 593.738,1282.21 592.5,1280.5C 592.011,1277.53 590.845,1274.87 589,1272.5C 584,1266.5 579,1260.5 574,1254.5C 564.629,1240.77 567.129,1229.94 581.5,1222C 590.97,1219.93 598.47,1222.76 604,1230.5C 607.475,1240.2 609.808,1250.2 611,1260.5C 613.514,1267.52 616.014,1274.52 618.5,1281.5 Z"/></g>
<g><path style="opacity:1" fill="#9266f0" d="M 349.5,1237.5 C 347.932,1239.93 346.432,1239.93 345,1237.5C 342.904,1238.72 343.071,1239.55 345.5,1240C 344.167,1240.67 342.833,1241.33 341.5,1242C 343.255,1242.72 344.089,1243.89 344,1245.5C 343.667,1245.17 343.333,1244.83 343,1244.5C 340.222,1247.14 337.056,1249.14 333.5,1250.5C 332.141,1252.31 332.475,1253.81 334.5,1255C 332.699,1255.32 332.366,1255.98 333.5,1257C 332.562,1258.06 331.562,1259.23 330.5,1260.5C 331.167,1261.17 331.833,1261.83 332.5,1262.5C 331.738,1262.91 330.738,1263.08 329.5,1263C 329.5,1264.33 329.5,1265.67 329.5,1267C 328.377,1268.04 327.044,1268.71 325.5,1269C 326.167,1269.33 326.833,1269.67 327.5,1270C 326.687,1271.31 325.687,1272.48 324.5,1273.5C 326.991,1274.54 326.991,1275.37 324.5,1276C 324.833,1277 325.167,1278 325.5,1279C 324.167,1279.67 322.833,1280.33 321.5,1281C 323.554,1282.68 323.221,1284.35 320.5,1286C 320.833,1287 321.167,1288 321.5,1289C 320.421,1289.96 319.255,1290.79 318,1291.5C 317.383,1292.45 317.549,1293.28 318.5,1294C 317.5,1294.33 316.5,1294.67 315.5,1295C 316.187,1297.23 316.521,1299.4 316.5,1301.5C 316.154,1302.7 315.654,1302.7 315,1301.5C 314.667,1303.17 314.333,1304.83 314,1306.5C 312.703,1305.22 311.536,1305.38 310.5,1307C 310.889,1308.62 312.222,1309.78 314.5,1310.5C 313.738,1310.91 312.738,1311.08 311.5,1311C 311.07,1311.92 310.736,1312.75 310.5,1313.5C 309.914,1313.29 309.414,1312.96 309,1312.5C 308.405,1313.9 308.572,1315.23 309.5,1316.5C 307.009,1317.54 307.009,1318.37 309.5,1319C 308.833,1319.33 308.167,1319.67 307.5,1320C 311.211,1320.84 314.877,1321.84 318.5,1323C 316.881,1323.24 315.881,1324.07 315.5,1325.5C 300.301,1323.23 285.301,1320.57 270.5,1317.5C 270.389,1316.88 270.056,1316.38 269.5,1316C 272.099,1315.23 274.599,1315.4 277,1316.5C 278.669,1314.74 279.836,1312.74 280.5,1310.5C 278.662,1309.81 276.995,1309.48 275.5,1309.5C 278.573,1308.8 280.573,1306.97 281.5,1304C 279.406,1302.65 277.073,1302.15 274.5,1302.5C 274.5,1301.5 274.5,1300.5 274.5,1299.5C 276.773,1300.74 278.606,1300.4 280,1298.5C 281.613,1299.62 282.78,1299.12 283.5,1297C 281.365,1295.62 279.032,1294.62 276.5,1294C 279.312,1289.87 281.645,1285.54 283.5,1281C 280.833,1279.67 280.833,1278.33 283.5,1277C 283.167,1276.67 282.833,1276.33 282.5,1276C 284.126,1276.2 285.793,1276.2 287.5,1276C 285.998,1275.42 284.665,1274.58 283.5,1273.5C 286.557,1270.3 288.723,1266.97 290,1263.5C 291.399,1263.5 292.899,1263.83 294.5,1264.5C 295.981,1263.52 297.315,1262.35 298.5,1261C 296.009,1260.37 296.009,1259.54 298.5,1258.5C 297.833,1257.83 297.167,1257.17 296.5,1256.5C 297.262,1256.09 298.262,1255.92 299.5,1256C 299.167,1255.67 298.833,1255.33 298.5,1255C 300.679,1254.56 301.345,1253.56 300.5,1252C 301.714,1250.02 303.381,1248.52 305.5,1247.5C 303.96,1247.31 302.294,1246.47 300.5,1245C 301.931,1244.53 303.097,1243.7 304,1242.5C 304.333,1242.83 304.667,1243.17 305,1243.5C 305.456,1242.26 304.956,1241.42 303.5,1241C 307.669,1239.12 308.336,1237.28 305.5,1235.5C 306.098,1234.21 306.598,1232.87 307,1231.5C 308.087,1233.93 308.587,1233.6 308.5,1230.5C 306.801,1230.66 305.134,1230.49 303.5,1230C 303.53,1228.57 303.197,1227.07 302.5,1225.5C 312.309,1224.02 322.309,1223.52 332.5,1224C 338.354,1228.36 344.021,1232.86 349.5,1237.5 Z"/></g>
<g><path style="opacity:1" fill="#dcdbe3" d="M 417.5,1228.5 C 420.187,1228.34 422.854,1228.5 425.5,1229C 426.554,1230.39 426.72,1231.89 426,1233.5C 423.263,1234.61 420.429,1234.78 417.5,1234C 414.982,1232.19 414.982,1230.36 417.5,1228.5 Z"/></g>
<g><path style="opacity:1" fill="#e5e4e5" d="M 432.5,1229.5 C 444.838,1229.33 457.171,1229.5 469.5,1230C 470.833,1231.33 470.833,1232.67 469.5,1234C 457.5,1234.67 445.5,1234.67 433.5,1234C 432.62,1232.64 432.286,1231.14 432.5,1229.5 Z"/></g>
<g><path style="opacity:1" fill="#dcdbe3" d="M 477.5,1228.5 C 480.187,1228.34 482.854,1228.5 485.5,1229C 486.554,1230.39 486.72,1231.89 486,1233.5C 483.263,1234.61 480.429,1234.78 477.5,1234C 474.982,1232.19 474.982,1230.36 477.5,1228.5 Z"/></g>
<g><path style="opacity:1" fill="#dcdbe3" d="M 494.5,1228.5 C 497.187,1228.34 499.854,1228.5 502.5,1229C 503.554,1230.39 503.72,1231.89 503,1233.5C 500.263,1234.61 497.429,1234.78 494.5,1234C 491.982,1232.19 491.982,1230.36 494.5,1228.5 Z"/></g>
<g><path style="opacity:1" fill="#e5e4e5" d="M 512.5,1229.5 C 524.838,1229.33 537.171,1229.5 549.5,1230C 550.833,1231.33 550.833,1232.67 549.5,1234C 537.5,1234.67 525.5,1234.67 513.5,1234C 512.62,1232.64 512.286,1231.14 512.5,1229.5 Z"/></g>
<g><path style="opacity:1" fill="#9860f0" d="M 349.5,1237.5 C 351.062,1237.73 352.395,1238.4 353.5,1239.5C 356.413,1242.37 360.079,1243.7 364.5,1243.5C 366.216,1243.63 367.883,1243.96 369.5,1244.5C 373.854,1246.76 378.521,1248.43 383.5,1249.5C 385.216,1249.63 386.883,1249.96 388.5,1250.5C 388.842,1251.34 389.508,1251.67 390.5,1251.5C 392.167,1252.83 393.833,1254.17 395.5,1255.5C 391.691,1256.21 388.191,1255.21 385,1252.5C 384,1253.83 383,1253.83 382,1252.5C 381.16,1255.46 380.16,1255.8 379,1253.5C 378.667,1254.83 378.333,1256.17 378,1257.5C 376.534,1255.68 374.701,1255.18 372.5,1256C 373.624,1256.25 374.624,1256.75 375.5,1257.5C 374.418,1257.75 373.085,1257.92 371.5,1258C 373.569,1258.32 373.902,1259.16 372.5,1260.5C 373.711,1261.87 374.711,1263.37 375.5,1265C 375.026,1266.7 374.859,1268.54 375,1270.5C 374.444,1268.4 373.944,1268.24 373.5,1270C 375.001,1273.54 374.501,1274.04 372,1271.5C 372.674,1275.97 371.174,1279.81 367.5,1283C 368.089,1284.87 367.422,1286.54 365.5,1288C 365.833,1289 366.167,1290 366.5,1291C 365.5,1292 364.5,1293 363.5,1294C 364.863,1296.13 364.529,1296.63 362.5,1295.5C 362.539,1298.96 361.206,1302.13 358.5,1305C 358.626,1306.97 358.792,1309.14 359,1311.5C 359.692,1312.03 360.192,1312.69 360.5,1313.5C 358.953,1313.21 357.286,1313.71 355.5,1315C 359.396,1316.69 359.062,1317.86 354.5,1318.5C 353.289,1319.72 353.289,1320.89 354.5,1322C 353.624,1323.58 352.291,1324.58 350.5,1325C 351.167,1325.33 351.833,1325.67 352.5,1326C 350.868,1327.31 349.201,1327.81 347.5,1327.5C 348.34,1328.73 349.34,1329.73 350.5,1330.5C 338.795,1329.08 327.128,1327.41 315.5,1325.5C 315.881,1324.07 316.881,1323.24 318.5,1323C 314.877,1321.84 311.211,1320.84 307.5,1320C 308.167,1319.67 308.833,1319.33 309.5,1319C 307.009,1318.37 307.009,1317.54 309.5,1316.5C 308.572,1315.23 308.405,1313.9 309,1312.5C 309.414,1312.96 309.914,1313.29 310.5,1313.5C 310.736,1312.75 311.07,1311.92 311.5,1311C 312.738,1311.08 313.738,1310.91 314.5,1310.5C 312.222,1309.78 310.889,1308.62 310.5,1307C 311.536,1305.38 312.703,1305.22 314,1306.5C 314.333,1304.83 314.667,1303.17 315,1301.5C 315.654,1302.7 316.154,1302.7 316.5,1301.5C 316.521,1299.4 316.187,1297.23 315.5,1295C 316.5,1294.67 317.5,1294.33 318.5,1294C 317.549,1293.28 317.383,1292.45 318,1291.5C 319.255,1290.79 320.421,1289.96 321.5,1289C 321.167,1288 320.833,1287 320.5,1286C 323.221,1284.35 323.554,1282.68 321.5,1281C 322.833,1280.33 324.167,1279.67 325.5,1279C 325.167,1278 324.833,1277 324.5,1276C 326.991,1275.37 326.991,1274.54 324.5,1273.5C 325.687,1272.48 326.687,1271.31 327.5,1270C 326.833,1269.67 326.167,1269.33 325.5,1269C 327.044,1268.71 328.377,1268.04 329.5,1267C 329.5,1265.67 329.5,1264.33 329.5,1263C 330.738,1263.08 331.738,1262.91 332.5,1262.5C 331.833,1261.83 331.167,1261.17 330.5,1260.5C 331.562,1259.23 332.562,1258.06 333.5,1257C 332.366,1255.98 332.699,1255.32 334.5,1255C 332.475,1253.81 332.141,1252.31 333.5,1250.5C 337.056,1249.14 340.222,1247.14 343,1244.5C 343.333,1244.83 343.667,1245.17 344,1245.5C 344.089,1243.89 343.255,1242.72 341.5,1242C 342.833,1241.33 344.167,1240.67 345.5,1240C 343.071,1239.55 342.904,1238.72 345,1237.5C 346.432,1239.93 347.932,1239.93 349.5,1237.5 Z"/></g>
<g><path style="opacity:1" fill="#c657aa" d="M 721.5,1241.5 C 721.5,1240.83 721.833,1240.5 722.5,1240.5C 722.833,1240.5 723.167,1240.5 723.5,1240.5C 729.833,1240.5 736.167,1240.5 742.5,1240.5C 741.193,1242.15 741.193,1243.82 742.5,1245.5C 740.018,1247.49 738.184,1249.49 737,1251.5C 737.43,1253.13 737.596,1254.63 737.5,1256C 735.343,1257.08 735.176,1258.25 737,1259.5C 737.451,1257.07 738.285,1256.9 739.5,1259C 738.803,1262.41 736.97,1263.57 734,1262.5C 732.981,1264.27 732.814,1265.94 733.5,1267.5C 732.185,1269.32 730.685,1270.98 729,1272.5C 728.792,1274.86 728.626,1277.03 728.5,1279C 729.833,1279.33 731.167,1279.67 732.5,1280C 730.447,1281.2 728.447,1281.54 726.5,1281C 726.833,1281.33 727.167,1281.67 727.5,1282C 724.774,1283.97 724.44,1285.97 726.5,1288C 723.11,1289.01 722.11,1291.01 723.5,1294C 722.5,1294.83 721.5,1295.67 720.5,1296.5C 721.471,1297.96 721.138,1299.3 719.5,1300.5C 720.167,1300.83 720.833,1301.17 721.5,1301.5C 719.696,1302.72 718.029,1303.72 716.5,1304.5C 717.165,1306.1 717.499,1307.6 717.5,1309C 714.774,1310.97 714.44,1312.97 716.5,1315C 715.672,1315.91 714.672,1316.58 713.5,1317C 714.552,1318.72 713.886,1319.72 711.5,1320C 712.257,1321.51 713.257,1322.85 714.5,1324C 713.299,1324.9 712.465,1326.07 712,1327.5C 710.951,1326.48 709.784,1326.32 708.5,1327C 709.956,1327.42 710.456,1328.26 710,1329.5C 708.927,1328.72 707.76,1328.89 706.5,1330C 708.854,1331.38 708.854,1332.88 706.5,1334.5C 707.228,1336.15 707.395,1337.82 707,1339.5C 706.282,1338.55 705.449,1338.38 704.5,1339C 705.238,1340.82 705.572,1342.82 705.5,1345C 700.145,1346.2 699.145,1348.53 702.5,1352C 701.289,1352.79 700.289,1353.45 699.5,1354C 700.022,1354.95 700.689,1355.78 701.5,1356.5C 700.603,1356.67 699.603,1357 698.5,1357.5C 697.533,1359.63 696.366,1361.63 695,1363.5C 694.322,1365.6 694.489,1367.6 695.5,1369.5C 691.516,1377.47 687.016,1385.13 682,1392.5C 677.958,1398.04 673.125,1402.71 667.5,1406.5C 667.141,1404.23 667.808,1402.4 669.5,1401C 668.978,1400.44 668.645,1399.77 668.5,1399C 669.62,1397.26 670.62,1395.43 671.5,1393.5C 671.291,1392.91 670.957,1392.41 670.5,1392C 671.833,1390.67 673.167,1389.33 674.5,1388C 673.833,1387.67 673.167,1387.33 672.5,1387C 674.394,1385.9 675.061,1384.57 674.5,1383C 675.652,1379.54 677.319,1376.37 679.5,1373.5C 678.429,1371.67 679.096,1370.51 681.5,1370C 680.833,1369.67 680.167,1369.33 679.5,1369C 681.024,1366.31 682.69,1363.64 684.5,1361C 684.167,1360.67 683.833,1360.33 683.5,1360C 684.981,1356.54 686.648,1353.21 688.5,1350C 687.366,1348.98 687.699,1348.32 689.5,1348C 689.167,1347 688.833,1346 688.5,1345C 690.301,1344.68 690.634,1344.02 689.5,1343C 692.351,1338.65 694.685,1333.98 696.5,1329C 696.167,1328.67 695.833,1328.33 695.5,1328C 696.364,1325.93 697.697,1324.26 699.5,1323C 698.819,1319.01 700.152,1315.67 703.5,1313C 703.5,1310 703.5,1307 703.5,1304C 707.781,1299.35 710.448,1293.85 711.5,1287.5C 712.141,1285.7 713.141,1284.2 714.5,1283C 713.803,1280.66 714.469,1278.49 716.5,1276.5C 715.429,1274.67 716.096,1273.51 718.5,1273C 718.043,1272.59 717.709,1272.09 717.5,1271.5C 719.272,1268.43 720.439,1265.09 721,1261.5C 724.19,1257.65 726.356,1253.31 727.5,1248.5C 727.167,1247.83 726.833,1247.17 726.5,1246.5C 728.297,1245.3 729.297,1243.64 729.5,1241.5C 726.833,1241.5 724.167,1241.5 721.5,1241.5 Z"/></g>
<g><path style="opacity:0.651" fill="#634c95" d="M 353.5,1239.5 C 357.248,1240.86 360.914,1242.19 364.5,1243.5C 360.079,1243.7 356.413,1242.37 353.5,1239.5 Z"/></g>
<g><path style="opacity:1" fill="#c356b1" d="M 721.5,1241.5 C 724.167,1241.5 726.833,1241.5 729.5,1241.5C 729.297,1243.64 728.297,1245.3 726.5,1246.5C 726.833,1247.17 727.167,1247.83 727.5,1248.5C 726.356,1253.31 724.19,1257.65 721,1261.5C 720.439,1265.09 719.272,1268.43 717.5,1271.5C 717.709,1272.09 718.043,1272.59 718.5,1273C 716.096,1273.51 715.429,1274.67 716.5,1276.5C 714.469,1278.49 713.803,1280.66 714.5,1283C 713.141,1284.2 712.141,1285.7 711.5,1287.5C 710.448,1293.85 707.781,1299.35 703.5,1304C 703.5,1307 703.5,1310 703.5,1313C 700.152,1315.67 698.819,1319.01 699.5,1323C 697.697,1324.26 696.364,1325.93 695.5,1328C 695.833,1328.33 696.167,1328.67 696.5,1329C 694.685,1333.98 692.351,1338.65 689.5,1343C 690.634,1344.02 690.301,1344.68 688.5,1345C 688.833,1346 689.167,1347 689.5,1348C 687.699,1348.32 687.366,1348.98 688.5,1350C 686.648,1353.21 684.981,1356.54 683.5,1360C 683.833,1360.33 684.167,1360.67 684.5,1361C 682.69,1363.64 681.024,1366.31 679.5,1369C 680.167,1369.33 680.833,1369.67 681.5,1370C 679.096,1370.51 678.429,1371.67 679.5,1373.5C 677.319,1376.37 675.652,1379.54 674.5,1383C 675.061,1384.57 674.394,1385.9 672.5,1387C 673.167,1387.33 673.833,1387.67 674.5,1388C 673.167,1389.33 671.833,1390.67 670.5,1392C 670.957,1392.41 671.291,1392.91 671.5,1393.5C 670.62,1395.43 669.62,1397.26 668.5,1399C 668.645,1399.77 668.978,1400.44 669.5,1401C 667.808,1402.4 667.141,1404.23 667.5,1406.5C 661.421,1409.94 655.088,1411.28 648.5,1410.5C 650.917,1408.59 653.25,1406.42 655.5,1404C 654.978,1403.44 654.645,1402.77 654.5,1402C 655.188,1397.78 656.855,1394.11 659.5,1391C 659.384,1389.73 659.051,1388.4 658.5,1387C 660.333,1386.5 661.5,1385.33 662,1383.5C 662.911,1379.1 664.411,1374.93 666.5,1371C 665.701,1369.25 666.368,1367.92 668.5,1367C 667.978,1366.44 667.645,1365.77 667.5,1365C 670.716,1361.12 672.382,1356.62 672.5,1351.5C 674.942,1351.65 675.609,1350.81 674.5,1349C 677.195,1347.58 677.861,1345.58 676.5,1343C 677.672,1342.58 678.672,1341.91 679.5,1341C 675.041,1340.58 674.707,1338.75 678.5,1335.5C 676.978,1333.84 677.311,1332.68 679.5,1332C 679.167,1331.67 678.833,1331.33 678.5,1331C 682.263,1324.46 684.929,1317.79 686.5,1311C 688.46,1307.58 690.126,1304.24 691.5,1301C 691.043,1300.59 690.709,1300.09 690.5,1299.5C 693.676,1291.57 697.676,1284.07 702.5,1277C 702.167,1276.67 701.833,1276.33 701.5,1276C 703.599,1273.59 705.266,1270.92 706.5,1268C 706.043,1267.59 705.709,1267.09 705.5,1266.5C 707.541,1263.08 709.041,1259.41 710,1255.5C 711.976,1254.46 712.476,1253.12 711.5,1251.5C 712.624,1250.09 713.624,1248.59 714.5,1247C 713.366,1245.98 713.699,1245.32 715.5,1245C 714.756,1243.96 713.756,1243.46 712.5,1243.5C 715.219,1242.09 718.219,1241.42 721.5,1241.5 Z"/></g>
<g><path style="opacity:1" fill="#c857a4" d="M 742.5,1240.5 C 745.373,1240.8 748.039,1241.47 750.5,1242.5C 749.232,1243.79 749.565,1244.79 751.5,1245.5C 750.5,1247.5 749.5,1249.5 748.5,1251.5C 749.571,1253.33 748.904,1254.49 746.5,1255C 747.121,1257.5 746.455,1259.83 744.5,1262C 744.833,1262.33 745.167,1262.67 745.5,1263C 743.395,1264.34 742.729,1266 743.5,1268C 741.559,1269.82 740.892,1271.82 741.5,1274C 738.422,1276.47 737.089,1279.47 737.5,1283C 736.743,1284.51 735.743,1285.85 734.5,1287C 734.833,1287.33 735.167,1287.67 735.5,1288C 731.906,1297.05 728.239,1306.05 724.5,1315C 724.833,1315.33 725.167,1315.67 725.5,1316C 721.558,1321.69 719.224,1327.19 718.5,1332.5C 717.167,1334.5 715.833,1336.5 714.5,1338.5C 708.563,1349.1 702.23,1359.43 695.5,1369.5C 694.489,1367.6 694.322,1365.6 695,1363.5C 696.366,1361.63 697.533,1359.63 698.5,1357.5C 699.603,1357 700.603,1356.67 701.5,1356.5C 700.689,1355.78 700.022,1354.95 699.5,1354C 700.289,1353.45 701.289,1352.79 702.5,1352C 699.145,1348.53 700.145,1346.2 705.5,1345C 705.572,1342.82 705.238,1340.82 704.5,1339C 705.449,1338.38 706.282,1338.55 707,1339.5C 707.395,1337.82 707.228,1336.15 706.5,1334.5C 708.854,1332.88 708.854,1331.38 706.5,1330C 707.76,1328.89 708.927,1328.72 710,1329.5C 710.456,1328.26 709.956,1327.42 708.5,1327C 709.784,1326.32 710.951,1326.48 712,1327.5C 712.465,1326.07 713.299,1324.9 714.5,1324C 713.257,1322.85 712.257,1321.51 711.5,1320C 713.886,1319.72 714.552,1318.72 713.5,1317C 714.672,1316.58 715.672,1315.91 716.5,1315C 714.44,1312.97 714.774,1310.97 717.5,1309C 717.499,1307.6 717.165,1306.1 716.5,1304.5C 718.029,1303.72 719.696,1302.72 721.5,1301.5C 720.833,1301.17 720.167,1300.83 719.5,1300.5C 721.138,1299.3 721.471,1297.96 720.5,1296.5C 721.5,1295.67 722.5,1294.83 723.5,1294C 722.11,1291.01 723.11,1289.01 726.5,1288C 724.44,1285.97 724.774,1283.97 727.5,1282C 727.167,1281.67 726.833,1281.33 726.5,1281C 728.447,1281.54 730.447,1281.2 732.5,1280C 731.167,1279.67 729.833,1279.33 728.5,1279C 728.626,1277.03 728.792,1274.86 729,1272.5C 730.685,1270.98 732.185,1269.32 733.5,1267.5C 732.814,1265.94 732.981,1264.27 734,1262.5C 736.97,1263.57 738.803,1262.41 739.5,1259C 738.285,1256.9 737.451,1257.07 737,1259.5C 735.176,1258.25 735.343,1257.08 737.5,1256C 737.596,1254.63 737.43,1253.13 737,1251.5C 738.184,1249.49 740.018,1247.49 742.5,1245.5C 741.193,1243.82 741.193,1242.15 742.5,1240.5 Z"/></g>
<g><path style="opacity:1" fill="#8c6bf0" d="M 302.5,1225.5 C 303.197,1227.07 303.53,1228.57 303.5,1230C 305.134,1230.49 306.801,1230.66 308.5,1230.5C 308.587,1233.6 308.087,1233.93 307,1231.5C 306.598,1232.87 306.098,1234.21 305.5,1235.5C 308.336,1237.28 307.669,1239.12 303.5,1241C 304.956,1241.42 305.456,1242.26 305,1243.5C 304.667,1243.17 304.333,1242.83 304,1242.5C 303.097,1243.7 301.931,1244.53 300.5,1245C 302.294,1246.47 303.96,1247.31 305.5,1247.5C 303.381,1248.52 301.714,1250.02 300.5,1252C 301.345,1253.56 300.679,1254.56 298.5,1255C 298.833,1255.33 299.167,1255.67 299.5,1256C 298.262,1255.92 297.262,1256.09 296.5,1256.5C 297.167,1257.17 297.833,1257.83 298.5,1258.5C 296.009,1259.54 296.009,1260.37 298.5,1261C 297.315,1262.35 295.981,1263.52 294.5,1264.5C 292.899,1263.83 291.399,1263.5 290,1263.5C 288.723,1266.97 286.557,1270.3 283.5,1273.5C 284.665,1274.58 285.998,1275.42 287.5,1276C 285.793,1276.2 284.126,1276.2 282.5,1276C 282.833,1276.33 283.167,1276.67 283.5,1277C 280.833,1278.33 280.833,1279.67 283.5,1281C 281.645,1285.54 279.312,1289.87 276.5,1294C 279.032,1294.62 281.365,1295.62 283.5,1297C 282.78,1299.12 281.613,1299.62 280,1298.5C 278.606,1300.4 276.773,1300.74 274.5,1299.5C 274.5,1300.5 274.5,1301.5 274.5,1302.5C 277.073,1302.15 279.406,1302.65 281.5,1304C 280.573,1306.97 278.573,1308.8 275.5,1309.5C 276.995,1309.48 278.662,1309.81 280.5,1310.5C 279.836,1312.74 278.669,1314.74 277,1316.5C 274.599,1315.4 272.099,1315.23 269.5,1316C 270.056,1316.38 270.389,1316.88 270.5,1317.5C 250.219,1315.51 229.886,1314.51 209.5,1314.5C 214.038,1304.76 218.871,1295.1 224,1285.5C 231.409,1271.26 242.243,1260.59 256.5,1253.5C 264.042,1251.71 271.375,1249.21 278.5,1246C 281.593,1239.32 284.26,1232.48 286.5,1225.5C 291.833,1225.5 297.167,1225.5 302.5,1225.5 Z"/></g>
<g><path style="opacity:1" fill="#cb589f" d="M 750.5,1242.5 C 754.215,1242.42 757.881,1242.76 761.5,1243.5C 759.884,1245.42 760.218,1246.92 762.5,1248C 761.833,1248.33 761.167,1248.67 760.5,1249C 761.946,1251.49 761.279,1253.33 758.5,1254.5C 758.709,1255.09 759.043,1255.59 759.5,1256C 755.047,1262.53 752.38,1269.53 751.5,1277C 748.614,1283.44 745.614,1289.44 742.5,1295C 743.307,1297.6 742.64,1299.93 740.5,1302C 740.833,1302.33 741.167,1302.67 741.5,1303C 738.759,1306.63 736.759,1310.63 735.5,1315C 735.5,1316.33 735.5,1317.67 735.5,1319C 734.167,1321 732.833,1323 731.5,1325C 732.833,1326.84 732.666,1327.34 731,1326.5C 730.487,1327.53 729.987,1328.53 729.5,1329.5C 726.063,1330.94 722.397,1331.94 718.5,1332.5C 719.224,1327.19 721.558,1321.69 725.5,1316C 725.167,1315.67 724.833,1315.33 724.5,1315C 728.239,1306.05 731.906,1297.05 735.5,1288C 735.167,1287.67 734.833,1287.33 734.5,1287C 735.743,1285.85 736.743,1284.51 737.5,1283C 737.089,1279.47 738.422,1276.47 741.5,1274C 740.892,1271.82 741.559,1269.82 743.5,1268C 742.729,1266 743.395,1264.34 745.5,1263C 745.167,1262.67 744.833,1262.33 744.5,1262C 746.455,1259.83 747.121,1257.5 746.5,1255C 748.904,1254.49 749.571,1253.33 748.5,1251.5C 749.5,1249.5 750.5,1247.5 751.5,1245.5C 749.565,1244.79 749.232,1243.79 750.5,1242.5 Z"/></g>
<g><path style="opacity:1" fill="#cc5898" d="M 761.5,1243.5 C 771.437,1244.29 781.104,1245.96 790.5,1248.5C 788.833,1248.5 787.167,1248.5 785.5,1248.5C 780.411,1245.63 776.411,1246.46 773.5,1251C 774.058,1253.85 772.725,1255.85 769.5,1257C 770.167,1258.67 770.833,1260.33 771.5,1262C 770.585,1265.99 768.585,1269.82 765.5,1273.5C 766.326,1274.45 766.492,1275.45 766,1276.5C 765.052,1278.57 763.552,1280.07 761.5,1281C 761.957,1281.41 762.291,1281.91 762.5,1282.5C 760.804,1286.82 758.804,1290.98 756.5,1295C 756.957,1295.41 757.291,1295.91 757.5,1296.5C 753.398,1304.97 750.065,1312.97 747.5,1320.5C 748.025,1321.19 748.692,1321.69 749.5,1322C 746.418,1322.52 745.418,1324.02 746.5,1326.5C 740.909,1327.88 735.243,1328.88 729.5,1329.5C 729.987,1328.53 730.487,1327.53 731,1326.5C 732.666,1327.34 732.833,1326.84 731.5,1325C 732.833,1323 734.167,1321 735.5,1319C 735.5,1317.67 735.5,1316.33 735.5,1315C 736.759,1310.63 738.759,1306.63 741.5,1303C 741.167,1302.67 740.833,1302.33 740.5,1302C 742.64,1299.93 743.307,1297.6 742.5,1295C 745.614,1289.44 748.614,1283.44 751.5,1277C 752.38,1269.53 755.047,1262.53 759.5,1256C 759.043,1255.59 758.709,1255.09 758.5,1254.5C 761.279,1253.33 761.946,1251.49 760.5,1249C 761.167,1248.67 761.833,1248.33 762.5,1248C 760.218,1246.92 759.884,1245.42 761.5,1243.5 Z"/></g>
<g><path style="opacity:1" fill="#c056b8" d="M 712.5,1243.5 C 713.756,1243.46 714.756,1243.96 715.5,1245C 713.699,1245.32 713.366,1245.98 714.5,1247C 713.624,1248.59 712.624,1250.09 711.5,1251.5C 712.476,1253.12 711.976,1254.46 710,1255.5C 709.041,1259.41 707.541,1263.08 705.5,1266.5C 705.709,1267.09 706.043,1267.59 706.5,1268C 705.266,1270.92 703.599,1273.59 701.5,1276C 701.833,1276.33 702.167,1276.67 702.5,1277C 697.676,1284.07 693.676,1291.57 690.5,1299.5C 690.709,1300.09 691.043,1300.59 691.5,1301C 690.126,1304.24 688.46,1307.58 686.5,1311C 684.929,1317.79 682.263,1324.46 678.5,1331C 678.833,1331.33 679.167,1331.67 679.5,1332C 677.311,1332.68 676.978,1333.84 678.5,1335.5C 674.707,1338.75 675.041,1340.58 679.5,1341C 678.672,1341.91 677.672,1342.58 676.5,1343C 677.861,1345.58 677.195,1347.58 674.5,1349C 675.609,1350.81 674.942,1351.65 672.5,1351.5C 672.382,1356.62 670.716,1361.12 667.5,1365C 667.645,1365.77 667.978,1366.44 668.5,1367C 666.368,1367.92 665.701,1369.25 666.5,1371C 664.411,1374.93 662.911,1379.1 662,1383.5C 661.5,1385.33 660.333,1386.5 658.5,1387C 659.051,1388.4 659.384,1389.73 659.5,1391C 656.855,1394.11 655.188,1397.78 654.5,1402C 654.645,1402.77 654.978,1403.44 655.5,1404C 653.25,1406.42 650.917,1408.59 648.5,1410.5C 644.673,1410.25 641.34,1408.92 638.5,1406.5C 641.07,1405.52 641.07,1404.35 638.5,1403C 640.332,1402.25 641.999,1401.25 643.5,1400C 643.167,1399.67 642.833,1399.33 642.5,1399C 643.833,1397 645.167,1395 646.5,1393C 646.167,1392.67 645.833,1392.33 645.5,1392C 647.018,1388.61 648.684,1385.28 650.5,1382C 649.366,1380.98 649.699,1380.32 651.5,1380C 651.167,1379 650.833,1378 650.5,1377C 652.499,1373.96 654.499,1370.96 656.5,1368C 656.167,1367 655.833,1366 655.5,1365C 658.876,1358.89 661.876,1352.55 664.5,1346C 663.332,1344.13 663.832,1342.63 666,1341.5C 667.862,1334.55 670.029,1329.05 672.5,1325C 671.833,1324 671.167,1323 670.5,1322C 672.543,1320.29 674.21,1318.29 675.5,1316C 675.167,1315.67 674.833,1315.33 674.5,1315C 677.492,1313.89 678.159,1312.23 676.5,1310C 677.204,1308.43 678.537,1306.76 680.5,1305C 679.185,1303.61 679.519,1302.61 681.5,1302C 681.043,1301.59 680.709,1301.09 680.5,1300.5C 682.405,1296.87 684.071,1293.37 685.5,1290C 684.366,1288.98 684.699,1288.32 686.5,1288C 686.167,1287.67 685.833,1287.33 685.5,1287C 686.191,1285.93 686.691,1284.77 687,1283.5C 687.333,1284.17 687.667,1284.83 688,1285.5C 688.72,1283.89 688.554,1282.39 687.5,1281C 691.419,1277.27 693.086,1273.27 692.5,1269C 693.687,1266.23 695.02,1263.56 696.5,1261C 695.72,1259.93 695.887,1258.76 697,1257.5C 698.666,1258.34 698.833,1257.84 697.5,1256C 698.438,1254.94 699.438,1253.77 700.5,1252.5C 699.557,1250.53 700.224,1249.03 702.5,1248C 701.473,1247.49 700.473,1246.99 699.5,1246.5C 700.209,1245.6 701.209,1245.26 702.5,1245.5C 703.167,1245.5 703.5,1245.17 703.5,1244.5C 706.518,1244.3 709.518,1243.96 712.5,1243.5 Z"/></g>
<g><path style="opacity:1" fill="#be55be" d="M 699.5,1246.5 C 700.473,1246.99 701.473,1247.49 702.5,1248C 700.224,1249.03 699.557,1250.53 700.5,1252.5C 699.438,1253.77 698.438,1254.94 697.5,1256C 698.833,1257.84 698.666,1258.34 697,1257.5C 695.887,1258.76 695.72,1259.93 696.5,1261C 695.02,1263.56 693.687,1266.23 692.5,1269C 693.086,1273.27 691.419,1277.27 687.5,1281C 688.554,1282.39 688.72,1283.89 688,1285.5C 687.667,1284.83 687.333,1284.17 687,1283.5C 686.691,1284.77 686.191,1285.93 685.5,1287C 685.833,1287.33 686.167,1287.67 686.5,1288C 684.699,1288.32 684.366,1288.98 685.5,1290C 684.071,1293.37 682.405,1296.87 680.5,1300.5C 680.709,1301.09 681.043,1301.59 681.5,1302C 679.519,1302.61 679.185,1303.61 680.5,1305C 678.537,1306.76 677.204,1308.43 676.5,1310C 678.159,1312.23 677.492,1313.89 674.5,1315C 674.833,1315.33 675.167,1315.67 675.5,1316C 674.21,1318.29 672.543,1320.29 670.5,1322C 671.167,1323 671.833,1324 672.5,1325C 670.029,1329.05 667.862,1334.55 666,1341.5C 663.832,1342.63 663.332,1344.13 664.5,1346C 661.876,1352.55 658.876,1358.89 655.5,1365C 655.833,1366 656.167,1367 656.5,1368C 654.499,1370.96 652.499,1373.96 650.5,1377C 650.833,1378 651.167,1379 651.5,1380C 649.699,1380.32 649.366,1380.98 650.5,1382C 648.684,1385.28 647.018,1388.61 645.5,1392C 645.833,1392.33 646.167,1392.67 646.5,1393C 645.167,1395 643.833,1397 642.5,1399C 642.833,1399.33 643.167,1399.67 643.5,1400C 641.999,1401.25 640.332,1402.25 638.5,1403C 641.07,1404.35 641.07,1405.52 638.5,1406.5C 635.467,1404.98 632.8,1402.98 630.5,1400.5C 631.705,1399.33 631.705,1397.99 630.5,1396.5C 631.397,1396.33 632.397,1396 633.5,1395.5C 633.167,1394.83 632.833,1394.17 632.5,1393.5C 633.213,1390.63 634.546,1388.13 636.5,1386C 636.355,1385.23 636.022,1384.56 635.5,1384C 637.432,1382.65 638.766,1380.81 639.5,1378.5C 639.5,1376.83 639.5,1375.17 639.5,1373.5C 642.473,1370.16 644.473,1366.66 645.5,1363C 645.167,1362 644.833,1361 644.5,1360C 646.524,1357.75 648.191,1355.25 649.5,1352.5C 648.814,1350.94 648.981,1349.27 650,1347.5C 650.333,1348.17 650.667,1348.83 651,1349.5C 651.251,1347.57 651.751,1345.73 652.5,1344C 651.701,1342.25 652.368,1340.92 654.5,1340C 654.167,1339.67 653.833,1339.33 653.5,1339C 655.557,1333.64 657.89,1328.48 660.5,1323.5C 659.098,1322.16 659.431,1321.32 661.5,1321C 660.978,1320.44 660.645,1319.77 660.5,1319C 663.651,1315.95 665.651,1312.61 666.5,1309C 666.167,1308.67 665.833,1308.33 665.5,1308C 666.757,1303.99 668.424,1300.15 670.5,1296.5C 670.291,1295.91 669.957,1295.41 669.5,1295C 671.685,1292.08 673.685,1289.08 675.5,1286C 675.561,1284.16 675.227,1282.32 674.5,1280.5C 676.105,1277.62 677.439,1274.62 678.5,1271.5C 681.084,1266.95 683.584,1262.28 686,1257.5C 689.794,1252.86 694.294,1249.2 699.5,1246.5 Z"/></g>
<g><path style="opacity:1" fill="#d05992" d="M 785.5,1248.5 C 784.797,1249.81 784.797,1251.31 785.5,1253C 785.245,1254.33 784.578,1255.33 783.5,1256C 784.727,1257.59 784.394,1258.92 782.5,1260C 782.833,1260.33 783.167,1260.67 783.5,1261C 780.536,1261.84 780.203,1262.84 782.5,1264C 779.654,1264.88 778.987,1266.55 780.5,1269C 779.167,1270.67 777.833,1272.33 776.5,1274C 777.136,1277.33 775.803,1280 772.5,1282C 773.167,1282.33 773.833,1282.67 774.5,1283C 773.167,1283.67 773.167,1284.33 774.5,1285C 773.328,1285.42 772.328,1286.09 771.5,1287C 770.76,1288.73 770.76,1290.73 771.5,1293C 770.167,1294.33 768.833,1295.67 767.5,1297C 767.833,1298 768.167,1299 768.5,1300C 766.559,1301.82 765.892,1303.82 766.5,1306C 764.9,1307.61 763.567,1309.44 762.5,1311.5C 763.571,1313.33 762.904,1314.49 760.5,1315C 760.5,1316.33 760.5,1317.67 760.5,1319C 757.572,1319.36 756.906,1320.69 758.5,1323C 757.944,1324.01 757.278,1324.84 756.5,1325.5C 753.236,1326.32 749.902,1326.66 746.5,1326.5C 745.418,1324.02 746.418,1322.52 749.5,1322C 748.692,1321.69 748.025,1321.19 747.5,1320.5C 750.065,1312.97 753.398,1304.97 757.5,1296.5C 757.291,1295.91 756.957,1295.41 756.5,1295C 758.804,1290.98 760.804,1286.82 762.5,1282.5C 762.291,1281.91 761.957,1281.41 761.5,1281C 763.552,1280.07 765.052,1278.57 766,1276.5C 766.492,1275.45 766.326,1274.45 765.5,1273.5C 768.585,1269.82 770.585,1265.99 771.5,1262C 770.833,1260.33 770.167,1258.67 769.5,1257C 772.725,1255.85 774.058,1253.85 773.5,1251C 776.411,1246.46 780.411,1245.63 785.5,1248.5 Z"/></g>
<g><path style="opacity:1" fill="#d2598c" d="M 785.5,1248.5 C 787.167,1248.5 788.833,1248.5 790.5,1248.5C 792.565,1248.52 794.565,1248.85 796.5,1249.5C 796.245,1250.94 795.912,1252.44 795.5,1254C 796.308,1254.31 796.975,1254.81 797.5,1255.5C 796.738,1255.91 795.738,1256.08 794.5,1256C 794.833,1257.67 795.167,1259.33 795.5,1261C 793.431,1261.32 793.098,1262.16 794.5,1263.5C 793.559,1265.77 792.226,1267.77 790.5,1269.5C 790.709,1270.09 791.043,1270.59 791.5,1271C 789.318,1274.53 787.318,1278.19 785.5,1282C 785.957,1282.41 786.291,1282.91 786.5,1283.5C 782.333,1291 779.166,1299.33 777,1308.5C 776.25,1309.13 775.416,1309.63 774.5,1310C 774.306,1311.43 774.306,1312.93 774.5,1314.5C 773.975,1315.19 773.308,1315.69 772.5,1316C 772.833,1317 773.167,1318 773.5,1319C 771.624,1319.92 770.624,1321.42 770.5,1323.5C 765.938,1324.63 761.272,1325.29 756.5,1325.5C 757.278,1324.84 757.944,1324.01 758.5,1323C 756.906,1320.69 757.572,1319.36 760.5,1319C 760.5,1317.67 760.5,1316.33 760.5,1315C 762.904,1314.49 763.571,1313.33 762.5,1311.5C 763.567,1309.44 764.9,1307.61 766.5,1306C 765.892,1303.82 766.559,1301.82 768.5,1300C 768.167,1299 767.833,1298 767.5,1297C 768.833,1295.67 770.167,1294.33 771.5,1293C 770.76,1290.73 770.76,1288.73 771.5,1287C 772.328,1286.09 773.328,1285.42 774.5,1285C 773.167,1284.33 773.167,1283.67 774.5,1283C 773.833,1282.67 773.167,1282.33 772.5,1282C 775.803,1280 777.136,1277.33 776.5,1274C 777.833,1272.33 779.167,1270.67 780.5,1269C 778.987,1266.55 779.654,1264.88 782.5,1264C 780.203,1262.84 780.536,1261.84 783.5,1261C 783.167,1260.67 782.833,1260.33 782.5,1260C 784.394,1258.92 784.727,1257.59 783.5,1256C 784.578,1255.33 785.245,1254.33 785.5,1253C 784.797,1251.31 784.797,1249.81 785.5,1248.5 Z"/></g>
<g><path style="opacity:1" fill="#9e5aef" d="M 395.5,1255.5 C 402.331,1260.66 407.664,1266.99 411.5,1274.5C 406.959,1274.33 406.626,1275 410.5,1276.5C 409.265,1278.42 407.932,1279.42 406.5,1279.5C 407.09,1280.8 408.09,1281.63 409.5,1282C 408.167,1282.33 406.833,1282.67 405.5,1283C 405.802,1284.65 407.136,1285.99 409.5,1287C 407.153,1287.85 405.32,1289.35 404,1291.5C 403,1289.83 402,1288.17 401,1286.5C 399.35,1287.89 398.85,1289.39 399.5,1291C 398.675,1292.69 397.675,1292.85 396.5,1291.5C 395.289,1292.27 395.289,1293.11 396.5,1294C 395.833,1294.33 395.167,1294.67 394.5,1295C 396.957,1296.51 396.957,1297.85 394.5,1299C 395.962,1302.09 397.296,1305.26 398.5,1308.5C 398.032,1310.13 397.032,1311.3 395.5,1312C 398.08,1314.12 398.08,1316.29 395.5,1318.5C 394.325,1317.15 393.325,1317.31 392.5,1319C 393.167,1320 393.833,1321 394.5,1322C 392.236,1322.24 390.069,1322.74 388,1323.5C 387.28,1325.11 387.446,1326.61 388.5,1328C 386.697,1328.64 385.364,1329.8 384.5,1331.5C 380.89,1330.15 380.557,1330.82 383.5,1333.5C 382.274,1336.77 383.274,1337.94 386.5,1337C 387.337,1338.01 387.67,1339.18 387.5,1340.5C 375.205,1337.01 362.872,1333.68 350.5,1330.5C 349.34,1329.73 348.34,1328.73 347.5,1327.5C 349.201,1327.81 350.868,1327.31 352.5,1326C 351.833,1325.67 351.167,1325.33 350.5,1325C 352.291,1324.58 353.624,1323.58 354.5,1322C 353.289,1320.89 353.289,1319.72 354.5,1318.5C 359.062,1317.86 359.396,1316.69 355.5,1315C 357.286,1313.71 358.953,1313.21 360.5,1313.5C 360.192,1312.69 359.692,1312.03 359,1311.5C 358.792,1309.14 358.626,1306.97 358.5,1305C 361.206,1302.13 362.539,1298.96 362.5,1295.5C 364.529,1296.63 364.863,1296.13 363.5,1294C 364.5,1293 365.5,1292 366.5,1291C 366.167,1290 365.833,1289 365.5,1288C 367.422,1286.54 368.089,1284.87 367.5,1283C 371.174,1279.81 372.674,1275.97 372,1271.5C 374.501,1274.04 375.001,1273.54 373.5,1270C 373.944,1268.24 374.444,1268.4 375,1270.5C 374.859,1268.54 375.026,1266.7 375.5,1265C 374.711,1263.37 373.711,1261.87 372.5,1260.5C 373.902,1259.16 373.569,1258.32 371.5,1258C 373.085,1257.92 374.418,1257.75 375.5,1257.5C 374.624,1256.75 373.624,1256.25 372.5,1256C 374.701,1255.18 376.534,1255.68 378,1257.5C 378.333,1256.17 378.667,1254.83 379,1253.5C 380.16,1255.8 381.16,1255.46 382,1252.5C 383,1253.83 384,1253.83 385,1252.5C 388.191,1255.21 391.691,1256.21 395.5,1255.5 Z"/></g>
<g><path style="opacity:1" fill="#d45a86" d="M 796.5,1249.5 C 801.289,1250.51 805.956,1251.51 810.5,1252.5C 806.805,1253.19 805.805,1255.19 807.5,1258.5C 808.552,1258.35 809.552,1258.52 810.5,1259C 808.576,1259.18 806.909,1259.35 805.5,1259.5C 805.63,1261.42 805.964,1263.26 806.5,1265C 804.431,1265.32 804.098,1266.16 805.5,1267.5C 802.354,1274.29 799.354,1281.12 796.5,1288C 796.833,1288.33 797.167,1288.67 797.5,1289C 795.519,1289.61 795.185,1290.61 796.5,1292C 795.672,1292.91 794.672,1293.58 793.5,1294C 794.815,1295.39 794.481,1296.39 792.5,1297C 792.833,1297.33 793.167,1297.67 793.5,1298C 791.499,1301.72 789.499,1305.39 787.5,1309C 787.833,1310 788.167,1311 788.5,1312C 787.5,1312.83 786.5,1313.67 785.5,1314.5C 785.709,1315.09 786.043,1315.59 786.5,1316C 785.029,1317.58 784.029,1319.42 783.5,1321.5C 779.326,1323.06 774.993,1323.73 770.5,1323.5C 770.624,1321.42 771.624,1319.92 773.5,1319C 773.167,1318 772.833,1317 772.5,1316C 773.308,1315.69 773.975,1315.19 774.5,1314.5C 774.306,1312.93 774.306,1311.43 774.5,1310C 775.416,1309.63 776.25,1309.13 777,1308.5C 779.166,1299.33 782.333,1291 786.5,1283.5C 786.291,1282.91 785.957,1282.41 785.5,1282C 787.318,1278.19 789.318,1274.53 791.5,1271C 791.043,1270.59 790.709,1270.09 790.5,1269.5C 792.226,1267.77 793.559,1265.77 794.5,1263.5C 793.098,1262.16 793.431,1261.32 795.5,1261C 795.167,1259.33 794.833,1257.67 794.5,1256C 795.738,1256.08 796.738,1255.91 797.5,1255.5C 796.975,1254.81 796.308,1254.31 795.5,1254C 795.912,1252.44 796.245,1250.94 796.5,1249.5 Z"/></g>
<g><path style="opacity:1" fill="#d65a7f" d="M 810.5,1252.5 C 812.861,1252.67 815.194,1253.01 817.5,1253.5C 820.916,1253.53 823.916,1254.53 826.5,1256.5C 824.661,1257.51 823.328,1259.01 822.5,1261C 818.5,1261.67 818.5,1262.33 822.5,1263C 821.743,1264.51 820.743,1265.85 819.5,1267C 820.202,1269.06 819.535,1270.89 817.5,1272.5C 818.282,1274.33 817.616,1275.83 815.5,1277C 816.673,1280.18 815.673,1283.18 812.5,1286C 813.271,1288 812.605,1289.66 810.5,1291C 811.815,1292.39 811.481,1293.39 809.5,1294C 809.957,1294.41 810.291,1294.91 810.5,1295.5C 808.824,1299.19 806.824,1302.69 804.5,1306C 805.815,1307.39 805.481,1308.39 803.5,1309C 803.833,1309.33 804.167,1309.67 804.5,1310C 802.581,1312.98 801.248,1315.81 800.5,1318.5C 795.187,1320.71 789.52,1321.71 783.5,1321.5C 784.029,1319.42 785.029,1317.58 786.5,1316C 786.043,1315.59 785.709,1315.09 785.5,1314.5C 786.5,1313.67 787.5,1312.83 788.5,1312C 788.167,1311 787.833,1310 787.5,1309C 789.499,1305.39 791.499,1301.72 793.5,1298C 793.167,1297.67 792.833,1297.33 792.5,1297C 794.481,1296.39 794.815,1295.39 793.5,1294C 794.672,1293.58 795.672,1292.91 796.5,1292C 795.185,1290.61 795.519,1289.61 797.5,1289C 797.167,1288.67 796.833,1288.33 796.5,1288C 799.354,1281.12 802.354,1274.29 805.5,1267.5C 804.098,1266.16 804.431,1265.32 806.5,1265C 805.964,1263.26 805.63,1261.42 805.5,1259.5C 806.909,1259.35 808.576,1259.18 810.5,1259C 809.552,1258.52 808.552,1258.35 807.5,1258.5C 805.805,1255.19 806.805,1253.19 810.5,1252.5 Z"/></g>
<g><path style="opacity:1" fill="#d95b79" d="M 826.5,1256.5 C 827.167,1256.5 827.833,1256.5 828.5,1256.5C 831.095,1258.82 833.761,1261.15 836.5,1263.5C 835.262,1263.81 835.262,1264.31 836.5,1265C 835.529,1266.2 834.529,1266.7 833.5,1266.5C 834.975,1269.25 834.309,1271.41 831.5,1273C 832.167,1273.33 832.833,1273.67 833.5,1274C 831.162,1277.71 828.829,1281.37 826.5,1285C 826.665,1286.12 826.998,1287.28 827.5,1288.5C 824.797,1294.64 821.797,1300.64 818.5,1306.5C 818.709,1307.09 819.043,1307.59 819.5,1308C 817.901,1309.79 817.067,1311.95 817,1314.5C 816.25,1315.13 815.416,1315.63 814.5,1316C 816.473,1316.5 818.473,1316.66 820.5,1316.5C 814.053,1317.94 807.386,1318.6 800.5,1318.5C 801.248,1315.81 802.581,1312.98 804.5,1310C 804.167,1309.67 803.833,1309.33 803.5,1309C 805.481,1308.39 805.815,1307.39 804.5,1306C 806.824,1302.69 808.824,1299.19 810.5,1295.5C 810.291,1294.91 809.957,1294.41 809.5,1294C 811.481,1293.39 811.815,1292.39 810.5,1291C 812.605,1289.66 813.271,1288 812.5,1286C 815.673,1283.18 816.673,1280.18 815.5,1277C 817.616,1275.83 818.282,1274.33 817.5,1272.5C 819.535,1270.89 820.202,1269.06 819.5,1267C 820.743,1265.85 821.743,1264.51 822.5,1263C 818.5,1262.33 818.5,1261.67 822.5,1261C 823.328,1259.01 824.661,1257.51 826.5,1256.5 Z"/></g>
<g><path style="opacity:1" fill="#dc5b73" d="M 836.5,1263.5 C 840.876,1266.87 844.542,1270.87 847.5,1275.5C 846.031,1277.84 844.698,1280.34 843.5,1283C 843.833,1283.33 844.167,1283.67 844.5,1284C 841.233,1284.9 840.566,1286.73 842.5,1289.5C 839.001,1289.26 838.668,1290.09 841.5,1292C 840.874,1292.75 840.374,1293.58 840,1294.5C 839.667,1294.17 839.333,1293.83 839,1293.5C 837.89,1295.4 837.724,1297.23 838.5,1299C 835.736,1304.38 833.403,1309.88 831.5,1315.5C 828.038,1316.48 824.371,1316.81 820.5,1316.5C 818.473,1316.66 816.473,1316.5 814.5,1316C 815.416,1315.63 816.25,1315.13 817,1314.5C 817.067,1311.95 817.901,1309.79 819.5,1308C 819.043,1307.59 818.709,1307.09 818.5,1306.5C 821.797,1300.64 824.797,1294.64 827.5,1288.5C 826.998,1287.28 826.665,1286.12 826.5,1285C 828.829,1281.37 831.162,1277.71 833.5,1274C 832.833,1273.67 832.167,1273.33 831.5,1273C 834.309,1271.41 834.975,1269.25 833.5,1266.5C 834.529,1266.7 835.529,1266.2 836.5,1265C 835.262,1264.31 835.262,1263.81 836.5,1263.5 Z"/></g>
<g><path style="opacity:1" fill="#dd5b6c" d="M 847.5,1275.5 C 855.071,1288.3 862.404,1301.3 869.5,1314.5C 856.839,1315.01 844.173,1315.35 831.5,1315.5C 833.403,1309.88 835.736,1304.38 838.5,1299C 837.724,1297.23 837.89,1295.4 839,1293.5C 839.333,1293.83 839.667,1294.17 840,1294.5C 840.374,1293.58 840.874,1292.75 841.5,1292C 838.668,1290.09 839.001,1289.26 842.5,1289.5C 840.566,1286.73 841.233,1284.9 844.5,1284C 844.167,1283.67 843.833,1283.33 843.5,1283C 844.698,1280.34 846.031,1277.84 847.5,1275.5 Z"/></g>
<g><path style="opacity:1" fill="#bb55c3" d="M 674.5,1280.5 C 675.227,1282.32 675.561,1284.16 675.5,1286C 673.685,1289.08 671.685,1292.08 669.5,1295C 669.957,1295.41 670.291,1295.91 670.5,1296.5C 668.424,1300.15 666.757,1303.99 665.5,1308C 665.833,1308.33 666.167,1308.67 666.5,1309C 665.651,1312.61 663.651,1315.95 660.5,1319C 660.645,1319.77 660.978,1320.44 661.5,1321C 659.431,1321.32 659.098,1322.16 660.5,1323.5C 657.89,1328.48 655.557,1333.64 653.5,1339C 653.833,1339.33 654.167,1339.67 654.5,1340C 652.368,1340.92 651.701,1342.25 652.5,1344C 651.751,1345.73 651.251,1347.57 651,1349.5C 650.667,1348.83 650.333,1348.17 650,1347.5C 648.981,1349.27 648.814,1350.94 649.5,1352.5C 648.191,1355.25 646.524,1357.75 644.5,1360C 644.833,1361 645.167,1362 645.5,1363C 644.473,1366.66 642.473,1370.16 639.5,1373.5C 639.5,1375.17 639.5,1376.83 639.5,1378.5C 638.766,1380.81 637.432,1382.65 635.5,1384C 636.022,1384.56 636.355,1385.23 636.5,1386C 634.546,1388.13 633.213,1390.63 632.5,1393.5C 632.833,1394.17 633.167,1394.83 633.5,1395.5C 632.397,1396 631.397,1396.33 630.5,1396.5C 631.705,1397.99 631.705,1399.33 630.5,1400.5C 628.376,1399.97 626.876,1398.64 626,1396.5C 624.201,1392.93 622.701,1389.26 621.5,1385.5C 622.847,1386.03 624.181,1386.19 625.5,1386C 624.754,1383.91 624.421,1381.91 624.5,1380C 626.5,1377.67 628.5,1375.33 630.5,1373C 630.607,1370.06 630.607,1367.06 630.5,1364C 632.427,1360.5 634.427,1357 636.5,1353.5C 635.617,1352.45 634.95,1351.29 634.5,1350C 635.986,1349.75 636.986,1348.42 637.5,1346C 636.949,1344.6 636.616,1343.27 636.5,1342C 637.362,1339.27 638.195,1339.1 639,1341.5C 639.333,1340.17 639.667,1338.83 640,1337.5C 640.667,1336.17 641.333,1336.17 642,1337.5C 642.513,1336.47 643.013,1335.47 643.5,1334.5C 644.675,1335.97 645.675,1337.64 646.5,1339.5C 655.218,1322.34 663.551,1305.01 671.5,1287.5C 672.227,1285.05 673.227,1282.71 674.5,1280.5 Z"/></g>
<g><path style="opacity:1" fill="#413f59" d="M 156.5,1281.5 C 153.148,1285.52 148.815,1288.02 143.5,1289C 136.5,1289.67 129.5,1289.67 122.5,1289C 118.507,1288 115.341,1285.84 113,1282.5C 112.329,1283.25 111.496,1283.59 110.5,1283.5C 110.611,1282.88 110.944,1282.38 111.5,1282C 115.486,1281.5 119.486,1281.33 123.5,1281.5C 134.682,1281.15 145.682,1281.15 156.5,1281.5 Z"/></g>
<g><path style="opacity:1" fill="#302f43" d="M 156.5,1281.5 C 160.038,1282.88 163.704,1284.04 167.5,1285C 170.018,1286.87 171.352,1289.37 171.5,1292.5C 170.078,1299.95 165.745,1302.95 158.5,1301.5C 156.667,1315.17 155,1328.84 153.5,1342.5C 152.684,1344.14 151.35,1345.31 149.5,1346C 139.167,1346.67 128.833,1346.67 118.5,1346C 117.364,1344.85 116.364,1343.69 115.5,1342.5C 115.795,1340.26 115.461,1338.26 114.5,1336.5C 111.539,1319.61 109.373,1302.61 108,1285.5C 108.708,1284.62 109.542,1283.95 110.5,1283.5C 111.496,1283.59 112.329,1283.25 113,1282.5C 115.341,1285.84 118.507,1288 122.5,1289C 129.5,1289.67 136.5,1289.67 143.5,1289C 148.815,1288.02 153.148,1285.52 156.5,1281.5 Z"/></g>
<g><path style="opacity:1" fill="#3f3d56" d="M 592.5,1280.5 C 593.738,1282.21 594.405,1284.21 594.5,1286.5C 585.682,1287.49 576.682,1287.83 567.5,1287.5C 558.167,1287.5 548.833,1287.5 539.5,1287.5C 534.167,1287.5 528.833,1287.5 523.5,1287.5C 514.5,1287.5 505.5,1287.5 496.5,1287.5C 486.167,1287.5 475.833,1287.5 465.5,1287.5C 449.833,1287.5 434.167,1287.5 418.5,1287.5C 417.637,1285.58 416.971,1283.58 416.5,1281.5C 475.336,1281.83 534.002,1281.5 592.5,1280.5 Z"/></g>
<g><path style="opacity:1" fill="#a455ed" d="M 411.5,1274.5 C 413.412,1276.66 415.079,1278.99 416.5,1281.5C 416.971,1283.58 417.637,1285.58 418.5,1287.5C 423.998,1305.99 429.665,1324.32 435.5,1342.5C 438.312,1345.41 439.646,1349.08 439.5,1353.5C 422.085,1349.59 404.752,1345.25 387.5,1340.5C 387.67,1339.18 387.337,1338.01 386.5,1337C 383.274,1337.94 382.274,1336.77 383.5,1333.5C 380.557,1330.82 380.89,1330.15 384.5,1331.5C 385.364,1329.8 386.697,1328.64 388.5,1328C 387.446,1326.61 387.28,1325.11 388,1323.5C 390.069,1322.74 392.236,1322.24 394.5,1322C 393.833,1321 393.167,1320 392.5,1319C 393.325,1317.31 394.325,1317.15 395.5,1318.5C 398.08,1316.29 398.08,1314.12 395.5,1312C 397.032,1311.3 398.032,1310.13 398.5,1308.5C 397.296,1305.26 395.962,1302.09 394.5,1299C 396.957,1297.85 396.957,1296.51 394.5,1295C 395.167,1294.67 395.833,1294.33 396.5,1294C 395.289,1293.11 395.289,1292.27 396.5,1291.5C 397.675,1292.85 398.675,1292.69 399.5,1291C 398.85,1289.39 399.35,1287.89 401,1286.5C 402,1288.17 403,1289.83 404,1291.5C 405.32,1289.35 407.153,1287.85 409.5,1287C 407.136,1285.99 405.802,1284.65 405.5,1283C 406.833,1282.67 408.167,1282.33 409.5,1282C 408.09,1281.63 407.09,1280.8 406.5,1279.5C 407.932,1279.42 409.265,1278.42 410.5,1276.5C 406.626,1275 406.959,1274.33 411.5,1274.5 Z"/></g>
<g><path style="opacity:1" fill="#e5e5e6" d="M 161.5,1285.5 C 167.087,1286.59 169.254,1289.92 168,1295.5C 165.85,1298.96 162.684,1300.3 158.5,1299.5C 159.503,1294.83 160.503,1290.16 161.5,1285.5 Z"/></g>
<g><path style="opacity:0.776" fill="#6b4494" d="M 465.5,1287.5 C 475.833,1287.5 486.167,1287.5 496.5,1287.5C 496.5,1291.83 496.5,1296.17 496.5,1300.5C 496.167,1300.5 495.833,1300.5 495.5,1300.5C 495.5,1296.5 495.5,1292.5 495.5,1288.5C 485.833,1288.5 476.167,1288.5 466.5,1288.5C 465.833,1288.5 465.5,1288.17 465.5,1287.5 Z"/></g>
<g><path style="opacity:0.776" fill="#6e468f" d="M 594.5,1286.5 C 595.338,1286.84 595.672,1287.51 595.5,1288.5C 586.5,1288.5 577.5,1288.5 568.5,1288.5C 568.5,1292.5 568.5,1296.5 568.5,1300.5C 568.167,1300.5 567.833,1300.5 567.5,1300.5C 567.5,1296.17 567.5,1291.83 567.5,1287.5C 576.682,1287.83 585.682,1287.49 594.5,1286.5 Z"/></g>
<g><path style="opacity:1" fill="#cbcbcb" d="M 418.5,1287.5 C 434.167,1287.5 449.833,1287.5 465.5,1287.5C 465.5,1288.17 465.833,1288.5 466.5,1288.5C 466.241,1292.24 466.574,1295.91 467.5,1299.5C 476.81,1300.5 486.143,1300.83 495.5,1300.5C 495.833,1300.5 496.167,1300.5 496.5,1300.5C 496.5,1313.17 496.5,1325.83 496.5,1338.5C 495.833,1340.5 494.5,1341.83 492.5,1342.5C 473.5,1342.5 454.5,1342.5 435.5,1342.5C 429.665,1324.32 423.998,1305.99 418.5,1287.5 Z"/></g>
<g><path style="opacity:1" fill="#312f43" d="M 496.5,1287.5 C 505.5,1287.5 514.5,1287.5 523.5,1287.5C 523.198,1290.06 523.532,1292.39 524.5,1294.5C 527.94,1301.48 532.44,1302.15 538,1296.5C 538.497,1293.85 538.664,1291.19 538.5,1288.5C 539.167,1288.5 539.5,1288.17 539.5,1287.5C 548.833,1287.5 558.167,1287.5 567.5,1287.5C 567.5,1291.83 567.5,1296.17 567.5,1300.5C 567.5,1314.5 567.5,1328.5 567.5,1342.5C 580.833,1342.5 594.167,1342.5 607.5,1342.5C 609.771,1347.98 611.437,1353.65 612.5,1359.5C 579.736,1360.83 547.069,1360.83 514.5,1359.5C 521.773,1356.91 529.106,1354.41 536.5,1352C 549.215,1341.38 549.548,1330.38 537.5,1319C 530.473,1315.72 523.473,1315.72 516.5,1319C 509.965,1325.7 503.298,1332.2 496.5,1338.5C 496.5,1325.83 496.5,1313.17 496.5,1300.5C 496.5,1296.17 496.5,1291.83 496.5,1287.5 Z M 538.5,1288.5 C 538.664,1291.19 538.497,1293.85 538,1296.5C 532.44,1302.15 527.94,1301.48 524.5,1294.5C 524.5,1292.5 524.5,1290.5 524.5,1288.5C 529.167,1288.5 533.833,1288.5 538.5,1288.5 Z"/></g>
<g><path style="opacity:0.776" fill="#67438e" d="M 523.5,1287.5 C 528.833,1287.5 534.167,1287.5 539.5,1287.5C 539.5,1288.17 539.167,1288.5 538.5,1288.5C 533.833,1288.5 529.167,1288.5 524.5,1288.5C 524.5,1290.5 524.5,1292.5 524.5,1294.5C 523.532,1292.39 523.198,1290.06 523.5,1287.5 Z"/></g>
<g><path style="opacity:1" fill="#cbcacb" d="M 620.5,1287.5 C 637.5,1287.5 654.5,1287.5 671.5,1287.5C 663.551,1305.01 655.218,1322.34 646.5,1339.5C 645.675,1337.64 644.675,1335.97 643.5,1334.5C 641.011,1327.53 638.011,1320.86 634.5,1314.5C 633.513,1311.85 632.513,1309.19 631.5,1306.5C 630.15,1305.05 628.484,1304.38 626.5,1304.5C 624.864,1303.25 623.697,1301.58 623,1299.5C 621.932,1296.13 620.765,1292.8 619.5,1289.5C 619.863,1288.82 620.196,1288.15 620.5,1287.5 Z"/></g>
<g><path style="opacity:1" fill="#cacaca" d="M 605.5,1315.5 C 603.482,1316.17 601.816,1317.34 600.5,1319C 603.326,1326.65 605.66,1334.48 607.5,1342.5C 594.167,1342.5 580.833,1342.5 567.5,1342.5C 567.5,1328.5 567.5,1314.5 567.5,1300.5C 567.833,1300.5 568.167,1300.5 568.5,1300.5C 578.5,1300.5 588.5,1300.5 598.5,1300.5C 599.15,1300.2 599.817,1299.86 600.5,1299.5C 603.369,1304.44 605.035,1309.77 605.5,1315.5 Z"/></g>
<g><path style="opacity:1" fill="#b454d3" d="M 626.5,1304.5 C 628.484,1304.38 630.15,1305.05 631.5,1306.5C 632.513,1309.19 633.513,1311.85 634.5,1314.5C 634.291,1315.92 633.791,1317.26 633,1318.5C 632.667,1317.83 632.333,1317.17 632,1316.5C 630.077,1318.12 629.577,1319.95 630.5,1322C 628.48,1324.82 627.314,1327.65 627,1330.5C 626.667,1330.17 626.333,1329.83 626,1329.5C 626.397,1333.18 625.231,1336.52 622.5,1339.5C 623.902,1340.84 623.569,1341.68 621.5,1342C 621.833,1342.33 622.167,1342.67 622.5,1343C 620.776,1345.28 619.109,1347.62 617.5,1350C 617.692,1353.76 617.692,1357.43 617.5,1361C 616.643,1362.22 615.643,1363.39 614.5,1364.5C 613.976,1362.69 613.309,1361.03 612.5,1359.5C 611.437,1353.65 609.771,1347.98 607.5,1342.5C 605.66,1334.48 603.326,1326.65 600.5,1319C 601.816,1317.34 603.482,1316.17 605.5,1315.5C 612.692,1312.07 619.692,1308.41 626.5,1304.5 Z"/></g>
<g><path style="opacity:1" fill="#44387d" d="M 133.5,1317.5 C 132.215,1315.94 130.715,1314.6 129,1313.5C 127.594,1314.41 126.094,1315.08 124.5,1315.5C 126.168,1313.66 127.668,1311.66 129,1309.5C 131.157,1311.82 132.657,1314.48 133.5,1317.5 Z"/></g>
<g><path style="opacity:1" fill="#4a3b92" d="M 141.5,1317.5 C 140.432,1315.26 138.766,1313.43 136.5,1312C 138.883,1312.45 141.05,1313.61 143,1315.5C 143.528,1316.82 143.028,1317.48 141.5,1317.5 Z"/></g>
<g><path style="opacity:1" fill="#272636" d="M 209.5,1314.5 C 229.886,1314.51 250.219,1315.51 270.5,1317.5C 285.301,1320.57 300.301,1323.23 315.5,1325.5C 327.128,1327.41 338.795,1329.08 350.5,1330.5C 362.872,1333.68 375.205,1337.01 387.5,1340.5C 404.752,1345.25 422.085,1349.59 439.5,1353.5C 448.664,1355.91 456.33,1360.57 462.5,1367.5C 463.403,1370.39 463.736,1373.39 463.5,1376.5C 459.296,1372.05 454.296,1368.55 448.5,1366C 418.943,1354.69 388.61,1346.03 357.5,1340C 315.517,1331.72 273.184,1326.05 230.5,1323C 217.833,1322.33 205.167,1322.33 192.5,1323C 187.192,1323.66 182.192,1325.16 177.5,1327.5C 176.352,1322.56 178.019,1319.06 182.5,1317C 191.348,1314.79 200.348,1313.95 209.5,1314.5 Z"/></g>
<g><path style="opacity:1" fill="#292635" d="M 869.5,1314.5 C 879.058,1313.93 888.391,1315.09 897.5,1318C 900.186,1320.55 901.186,1323.71 900.5,1327.5C 895.802,1325.1 890.802,1323.6 885.5,1323C 846.887,1321.65 808.553,1324.31 770.5,1331C 752.836,1334.08 735.169,1337.25 717.5,1340.5C 715.97,1340.36 714.97,1339.69 714.5,1338.5C 715.833,1336.5 717.167,1334.5 718.5,1332.5C 722.397,1331.94 726.063,1330.94 729.5,1329.5C 735.243,1328.88 740.909,1327.88 746.5,1326.5C 749.902,1326.66 753.236,1326.32 756.5,1325.5C 761.272,1325.29 765.938,1324.63 770.5,1323.5C 774.993,1323.73 779.326,1323.06 783.5,1321.5C 789.52,1321.71 795.187,1320.71 800.5,1318.5C 807.386,1318.6 814.053,1317.94 820.5,1316.5C 824.371,1316.81 828.038,1316.48 831.5,1315.5C 844.173,1315.35 856.839,1315.01 869.5,1314.5 Z"/></g>
<g><path style="opacity:1" fill="#b854ca" d="M 634.5,1314.5 C 638.011,1320.86 641.011,1327.53 643.5,1334.5C 643.013,1335.47 642.513,1336.47 642,1337.5C 641.333,1336.17 640.667,1336.17 640,1337.5C 639.667,1338.83 639.333,1340.17 639,1341.5C 638.195,1339.1 637.362,1339.27 636.5,1342C 636.616,1343.27 636.949,1344.6 637.5,1346C 636.986,1348.42 635.986,1349.75 634.5,1350C 634.95,1351.29 635.617,1352.45 636.5,1353.5C 634.427,1357 632.427,1360.5 630.5,1364C 630.607,1367.06 630.607,1370.06 630.5,1373C 628.5,1375.33 626.5,1377.67 624.5,1380C 624.421,1381.91 624.754,1383.91 625.5,1386C 624.181,1386.19 622.847,1386.03 621.5,1385.5C 619.129,1380.74 617.129,1375.74 615.5,1370.5C 614.659,1368.62 614.325,1366.62 614.5,1364.5C 615.643,1363.39 616.643,1362.22 617.5,1361C 617.692,1357.43 617.692,1353.76 617.5,1350C 619.109,1347.62 620.776,1345.28 622.5,1343C 622.167,1342.67 621.833,1342.33 621.5,1342C 623.569,1341.68 623.902,1340.84 622.5,1339.5C 625.231,1336.52 626.397,1333.18 626,1329.5C 626.333,1329.83 626.667,1330.17 627,1330.5C 627.314,1327.65 628.48,1324.82 630.5,1322C 629.577,1319.95 630.077,1318.12 632,1316.5C 632.333,1317.17 632.667,1317.83 633,1318.5C 633.791,1317.26 634.291,1315.92 634.5,1314.5 Z"/></g>
<g><path style="opacity:0.999" fill="#9e6069" d="M 514.5,1359.5 C 507.014,1361.74 500.681,1365.74 495.5,1371.5C 494.833,1371.5 494.5,1371.83 494.5,1372.5C 487.5,1377.83 480.5,1383.17 473.5,1388.5C 472.883,1388.61 472.383,1388.94 472,1389.5C 469.64,1384.76 466.807,1380.43 463.5,1376.5C 463.736,1373.39 463.403,1370.39 462.5,1367.5C 462.859,1365.63 463.859,1364.13 465.5,1363C 474.928,1356.63 483.928,1349.8 492.5,1342.5C 494.5,1341.83 495.833,1340.5 496.5,1338.5C 503.298,1332.2 509.965,1325.7 516.5,1319C 523.473,1315.72 530.473,1315.72 537.5,1319C 549.548,1330.38 549.215,1341.38 536.5,1352C 529.106,1354.41 521.773,1356.91 514.5,1359.5 Z"/></g>
<g><path style="opacity:1" fill="#4c3c98" d="M 124.5,1315.5 C 125.031,1317.62 126.365,1319.12 128.5,1320C 126.322,1320.17 124.489,1319.33 123,1317.5C 122.472,1316.18 122.972,1315.52 124.5,1315.5 Z"/></g>
<g><path style="opacity:1" fill="#44387f" d="M 133.5,1317.5 C 134.531,1318.36 135.697,1319.02 137,1319.5C 138.406,1318.59 139.906,1317.92 141.5,1317.5C 139.916,1319.42 138.082,1321.09 136,1322.5C 134.628,1321.09 133.795,1319.42 133.5,1317.5 Z"/></g>
<g><path style="opacity:1" fill="#2f2e41" d="M 463.5,1376.5 C 463.382,1382.59 462.549,1388.59 461,1394.5C 458.912,1399.34 457.412,1404.34 456.5,1409.5C 455.386,1410.89 454.386,1412.39 453.5,1414C 381.583,1449.36 307.249,1455.36 230.5,1432C 217.827,1427.83 205.493,1422.83 193.5,1417C 186.237,1403.38 181.904,1388.88 180.5,1373.5C 180.5,1372.83 180.5,1372.17 180.5,1371.5C 179.789,1362.17 179.123,1352.84 178.5,1343.5C 178.431,1338.15 178.098,1332.81 177.5,1327.5C 182.192,1325.16 187.192,1323.66 192.5,1323C 205.167,1322.33 217.833,1322.33 230.5,1323C 273.184,1326.05 315.517,1331.72 357.5,1340C 388.61,1346.03 418.943,1354.69 448.5,1366C 454.296,1368.55 459.296,1372.05 463.5,1376.5 Z"/></g>
<g><path style="opacity:1" fill="#2f2e41" d="M 900.5,1327.5 C 899.836,1332.47 899.503,1337.47 899.5,1342.5C 899.5,1342.83 899.5,1343.17 899.5,1343.5C 899.078,1352.83 898.745,1362.16 898.5,1371.5C 897.167,1372.17 897.167,1372.83 898.5,1373.5C 896.145,1388.73 891.479,1403.23 884.5,1417C 821.958,1446.35 756.958,1453.35 689.5,1438C 666.248,1432.53 644.248,1424.03 623.5,1412.5C 617.658,1400.46 614.325,1387.8 613.5,1374.5C 614.404,1373.79 614.737,1372.79 614.5,1371.5C 614.5,1370.83 614.833,1370.5 615.5,1370.5C 617.129,1375.74 619.129,1380.74 621.5,1385.5C 622.701,1389.26 624.201,1392.93 626,1396.5C 626.876,1398.64 628.376,1399.97 630.5,1400.5C 632.8,1402.98 635.467,1404.98 638.5,1406.5C 641.34,1408.92 644.673,1410.25 648.5,1410.5C 655.088,1411.28 661.421,1409.94 667.5,1406.5C 673.125,1402.71 677.958,1398.04 682,1392.5C 687.016,1385.13 691.516,1377.47 695.5,1369.5C 702.23,1359.43 708.563,1349.1 714.5,1338.5C 714.97,1339.69 715.97,1340.36 717.5,1340.5C 735.169,1337.25 752.836,1334.08 770.5,1331C 808.553,1324.31 846.887,1321.65 885.5,1323C 890.802,1323.6 895.802,1325.1 900.5,1327.5 Z"/></g>
<g><path style="opacity:0.988" fill="#594e8e" d="M 114.5,1336.5 C 115.461,1338.26 115.795,1340.26 115.5,1342.5C 110.5,1343.17 105.5,1343.83 100.5,1344.5C 99.9569,1344.44 99.6236,1344.11 99.5,1343.5C 104.456,1342.51 109.456,1342.17 114.5,1342.5C 114.5,1340.5 114.5,1338.5 114.5,1336.5 Z"/></g>
<g><path style="opacity:0.988" fill="#805b68" d="M 899.5,1343.5 C 899.5,1343.17 899.5,1342.83 899.5,1342.5C 907.833,1342.5 916.167,1342.5 924.5,1342.5C 937.171,1342.33 949.838,1342.5 962.5,1343C 961.672,1344.99 960.339,1346.49 958.5,1347.5C 958.511,1345.98 959.177,1344.82 960.5,1344C 940.169,1343.5 919.836,1343.33 899.5,1343.5 Z"/></g>
<g><path style="opacity:1" fill="#3f3d56" d="M 115.5,1342.5 C 116.364,1343.69 117.364,1344.85 118.5,1346C 128.833,1346.67 139.167,1346.67 149.5,1346C 151.35,1345.31 152.684,1344.14 153.5,1342.5C 161.65,1343.49 169.983,1343.83 178.5,1343.5C 179.123,1352.84 179.789,1362.17 180.5,1371.5C 162.659,1371.17 144.992,1371.5 127.5,1372.5C 117.8,1363.8 108.8,1354.47 100.5,1344.5C 105.5,1343.83 110.5,1343.17 115.5,1342.5 Z"/></g>
<g><path style="opacity:1" fill="#353448" d="M 435.5,1342.5 C 454.5,1342.5 473.5,1342.5 492.5,1342.5C 483.928,1349.8 474.928,1356.63 465.5,1363C 463.859,1364.13 462.859,1365.63 462.5,1367.5C 456.33,1360.57 448.664,1355.91 439.5,1353.5C 439.646,1349.08 438.312,1345.41 435.5,1342.5 Z"/></g>
<g><path style="opacity:1" fill="#403d56" d="M 899.5,1343.5 C 919.836,1343.33 940.169,1343.5 960.5,1344C 959.177,1344.82 958.511,1345.98 958.5,1347.5C 951.5,1356.5 943.5,1364.5 934.5,1371.5C 922.5,1371.5 910.5,1371.5 898.5,1371.5C 898.745,1362.16 899.078,1352.83 899.5,1343.5 Z"/></g>
<g><path style="opacity:1" fill="#3f3c55" d="M 514.5,1359.5 C 547.069,1360.83 579.736,1360.83 612.5,1359.5C 613.309,1361.03 613.976,1362.69 614.5,1364.5C 614.325,1366.62 614.659,1368.62 615.5,1370.5C 614.833,1370.5 614.5,1370.83 614.5,1371.5C 574.833,1371.5 535.167,1371.5 495.5,1371.5C 500.681,1365.74 507.014,1361.74 514.5,1359.5 Z"/></g>
<g><path style="opacity:0.776" fill="#5d5197" d="M 127.5,1372.5 C 144.992,1371.5 162.659,1371.17 180.5,1371.5C 180.5,1372.17 180.5,1372.83 180.5,1373.5C 162.91,1372.51 145.243,1372.18 127.5,1372.5 Z"/></g>
<g><path style="opacity:0.776" fill="#6e4691" d="M 494.5,1372.5 C 494.5,1371.83 494.833,1371.5 495.5,1371.5C 535.167,1371.5 574.833,1371.5 614.5,1371.5C 614.737,1372.79 614.404,1373.79 613.5,1374.5C 574.181,1372.51 534.514,1371.84 494.5,1372.5 Z"/></g>
<g><path style="opacity:0.776" fill="#854a58" d="M 898.5,1371.5 C 910.5,1371.5 922.5,1371.5 934.5,1371.5C 922.5,1372.17 910.5,1372.83 898.5,1373.5C 897.167,1372.83 897.167,1372.17 898.5,1371.5 Z"/></g>
<g><path style="opacity:1" fill="#433d5b" d="M 463.5,1376.5 C 466.807,1380.43 469.64,1384.76 472,1389.5C 472.383,1388.94 472.883,1388.61 473.5,1388.5C 473.472,1390.58 474.139,1392.42 475.5,1394C 469.136,1399.17 462.803,1404.34 456.5,1409.5C 457.412,1404.34 458.912,1399.34 461,1394.5C 462.549,1388.59 463.382,1382.59 463.5,1376.5 Z"/></g>
</svg>
